<?xml version="1.0" standalone="no"?>
<!DOCTYPE svg PUBLIC "-//W3C//DTD SVG 20010904//EN"
 "http://www.w3.org/TR/2001/REC-SVG-20010904/DTD/svg10.dtd">
<svg version="1.0" xmlns="http://www.w3.org/2000/svg"
 width="300.000000pt" height="300.000000pt" viewBox="0 0 300.000000 300.000000"
 preserveAspectRatio="xMidYMid meet">
<metadata>
Created by potrace 1.10, written by Peter Selinger 2001-2011
</metadata>
<g transform="translate(0.000000,300.000000) scale(0.100000,-0.100000)"
fill="#000000" stroke="none">
<path d="M1367 2830 c-48 -4 -98 -12 -110 -17 -12 -6 -49 -21 -82 -33 -136
-51 -227 -125 -309 -250 -79 -121 -102 -170 -127 -279 -27 -118 -23 -171 14
-189 15 -7 27 -17 27 -23 0 -5 4 -9 8 -9 4 0 6 16 4 35 -10 85 51 300 117 414
59 100 121 157 226 207 133 64 197 78 335 71 128 -7 158 -15 304 -86 110 -53
215 -136 307 -240 54 -62 65 -85 42 -87 -7 -1 -17 -2 -22 -3 -5 0 -12 -13 -15
-27 -5 -19 -2 -33 13 -48 11 -11 23 -34 26 -49 4 -15 12 -26 19 -24 11 4 36
-16 36 -28 0 -3 -9 -3 -20 0 -11 3 -20 2 -20 -4 0 -5 -3 -16 -6 -25 -4 -11 3
-19 22 -26 39 -15 46 -30 24 -49 -13 -12 -20 -35 -24 -85 -3 -37 -2 -65 1 -62
4 3 17 36 31 74 29 80 40 138 23 128 -7 -5 -11 3 -11 24 0 36 -35 106 -67 133
-26 21 -30 37 -9 37 8 0 16 10 18 23 3 19 7 15 31 -26 24 -41 27 -51 15 -65
-12 -15 -11 -16 4 -4 15 12 19 9 33 -24 10 -26 12 -41 5 -48 -13 -13 -13 -26
0 -26 6 0 10 8 11 18 0 9 18 -21 40 -68 22 -46 38 -92 36 -102 -3 -9 0 -19 5
-20 15 -5 22 -98 9 -128 -9 -22 -10 -20 -12 25 -1 44 -3 40 -10 -29 -5 -43
-11 -81 -13 -84 -3 -2 -16 -6 -28 -7 -37 -4 -38 -4 -33 -17 3 -8 22 -12 48
-12 66 3 71 4 64 11 -4 3 -1 13 5 22 9 11 6 10 -9 -2 -29 -25 -33 -11 -12 48
13 34 18 42 19 26 0 -13 2 -22 5 -19 9 8 -14 184 -35 275 -56 240 -198 463
-375 588 -90 64 -215 126 -238 119 -11 -4 -17 -2 -14 3 4 6 -17 15 -46 21 -82
17 -169 32 -181 31 -6 -1 -51 -5 -99 -9z m238 -50 c96 -47 108 -63 15 -22 -47
21 -96 44 -110 51 -25 11 -25 11 5 6 17 -3 57 -19 90 -35z m-105 14 c21 -8 25
-12 10 -9 -45 10 -168 15 -135 6 25 -7 23 -8 -14 -5 -24 2 -56 5 -70 5 -25 1
-25 2 4 9 50 13 168 9 205 -6z m153 0 c18 -9 56 -34 85 -56 30 -22 56 -38 58
-35 3 3 -15 20 -40 38 -75 53 -44 46 66 -16 216 -121 310 -226 407 -451 54
-125 59 -153 12 -63 -21 42 -55 101 -75 131 -50 78 -156 209 -165 203 -5 -2
-21 9 -37 26 -34 37 -149 129 -159 129 -4 0 -1 -8 6 -17 10 -13 6 -12 -16 4
-16 11 -68 44 -115 72 -80 48 -97 70 -27 35z m-478 -55 c-22 -4 -49 -8 -60 -7
-16 0 -15 2 5 8 14 4 41 8 60 8 l35 0 -40 -9z m-381 -464 l-13 -70 5 59 c3 33
8 65 11 73 11 29 10 5 -3 -62z"/>
<path d="M1990 2582 c36 -37 90 -100 119 -139 29 -40 55 -73 57 -73 6 0 0 11
-48 83 -43 63 -140 167 -174 185 -12 6 9 -19 46 -56z"/>
<path d="M1793 2533 c-25 -17 -30 -42 -12 -60 7 -7 0 -21 -26 -46 -21 -21 -32
-38 -26 -42 16 -9 13 -25 -4 -25 -8 0 -15 -4 -15 -10 0 -5 0 -13 0 -17 0 -4 8
-8 18 -8 19 0 53 47 55 77 1 13 7 18 20 14 14 -3 16 0 12 15 -7 20 18 28 30 9
3 -5 20 -3 41 7 31 15 36 15 44 3 5 -8 20 -16 32 -17 13 -1 30 -3 38 -5 9 -2
16 6 18 21 4 23 2 24 -37 18 -28 -3 -44 -1 -52 9 -7 9 -16 11 -23 6 -6 -5 -28
-10 -50 -10 l-39 -1 6 39 c6 44 3 46 -30 23z"/>
<path d="M1910 2429 c0 -7 -7 -17 -16 -24 -9 -6 -18 -22 -20 -36 -3 -13 -8
-44 -12 -69 l-8 -45 -11 50 c-9 39 -9 56 2 82 8 18 10 33 4 33 -5 0 -9 -7 -9
-15 0 -9 -6 -12 -17 -8 -9 4 -14 2 -11 -3 3 -5 9 -31 12 -58 9 -61 19 -82 47
-89 19 -5 21 -2 17 44 -1 27 0 49 5 49 4 0 7 13 7 29 0 16 7 34 15 41 17 14
20 30 5 30 -5 0 -10 -5 -10 -11z"/>
<path d="M1533 2402 c-18 -9 -34 -25 -37 -39 -4 -12 -13 -23 -21 -23 -8 0 -15
-5 -15 -11 0 -6 -7 -17 -15 -25 -10 -10 -13 -24 -8 -42 8 -34 19 -42 61 -42
19 0 35 -6 38 -14 3 -9 19 -13 44 -12 21 0 37 3 37 6 -4 12 15 9 43 -5 17 -9
30 -11 30 -6 0 13 -29 35 -37 27 -3 -3 -14 0 -22 8 -17 16 -81 32 -65 17 5 -5
18 -11 29 -14 19 -4 19 -5 -1 -6 -12 0 -31 8 -44 19 -13 11 -36 20 -52 20 -15
0 -28 5 -28 10 0 6 10 10 23 10 21 1 22 1 3 15 -19 14 -19 15 8 15 25 0 27 2
15 17 -12 15 -12 16 4 10 12 -4 17 -1 18 11 0 9 3 12 5 5 3 -7 12 -9 20 -6 8
3 26 -8 42 -25 l29 -31 -2 37 c-2 20 -8 38 -15 40 -8 3 -23 15 -34 27 -20 20
-23 21 -53 7z"/>
<path d="M1986 2386 c-8 -30 -7 -38 4 -31 6 3 10 0 10 -9 0 -8 3 -21 6 -30 3
-9 1 -16 -6 -16 -6 0 -8 5 -4 11 4 7 1 10 -7 7 -8 -3 -15 -12 -17 -21 -3 -13
2 -15 27 -7 30 8 41 5 41 -13 0 -5 -7 -6 -16 -3 -8 3 -12 2 -9 -4 3 -6 0 -10
-8 -10 -7 0 -19 -11 -25 -26 -11 -22 -8 -30 20 -65 17 -21 32 -39 34 -39 1 0
-4 14 -13 30 -9 19 -12 41 -8 60 6 29 19 39 27 22 2 -5 14 -6 28 -2 l24 6 -21
21 c-27 27 -39 59 -42 109 -1 30 -37 38 -45 10z"/>
<path d="M1640 2341 c0 -5 7 -26 17 -47 16 -38 16 -38 23 -14 7 25 7 25 23
-10 9 -19 16 -29 17 -22 0 14 90 -114 90 -129 0 -4 5 -20 12 -36 14 -34 11
-63 -8 -84 -16 -18 -9 -29 19 -29 17 0 18 5 12 42 -6 34 -5 40 8 35 22 -8 37
41 37 118 l0 63 -36 7 c-44 8 -56 -1 -20 -14 17 -7 26 -19 27 -33 5 -93 6
-120 2 -103 -3 11 -9 25 -15 30 -6 6 -7 3 -2 -10 7 -17 6 -18 -8 -7 -9 7 -19
28 -22 47 -4 19 -11 35 -17 35 -8 0 -30 40 -33 60 -1 3 -7 12 -14 20 -7 8 -22
27 -33 43 -11 15 -24 25 -29 22 -4 -3 -13 2 -20 10 -14 17 -30 20 -30 6z"/>
<path d="M2280 2324 c0 -11 45 -84 53 -84 14 0 7 31 -15 60 -20 27 -38 39 -38
24z"/>
<path d="M941 2276 c-10 -24 -28 -49 -39 -55 -12 -6 -36 -41 -54 -78 -28 -58
-33 -78 -34 -148 0 -44 -2 -98 -3 -120 l-2 -40 -15 35 c-11 25 -14 50 -9 87 7
60 -6 76 -28 32 l-15 -32 -12 23 c-8 15 -8 20 -1 16 7 -4 11 1 11 13 0 11 -4
23 -10 26 -5 3 -10 15 -10 26 0 31 -54 22 -58 -8 -2 -13 1 -23 7 -23 6 0 11 7
11 15 0 8 6 12 15 9 11 -5 12 -10 3 -24 -16 -24 16 -95 100 -228 36 -56 67
-110 68 -119 3 -20 37 -48 42 -34 4 12 -47 114 -62 123 -7 5 -11 50 -11 130 1
104 4 130 22 168 11 25 24 55 28 68 3 12 10 20 15 17 4 -2 13 9 20 25 7 17 16
30 20 30 15 0 32 -30 26 -45 -3 -8 -1 -15 5 -15 6 0 9 -7 6 -15 -4 -8 -2 -17
3 -20 6 -4 8 -19 5 -36 -4 -21 -1 -29 10 -29 19 0 21 -57 3 -95 -10 -21 -8
-32 10 -64 12 -21 22 -55 22 -76 0 -30 3 -36 16 -31 9 3 17 6 19 6 2 0 13 20
25 44 16 35 28 46 53 52 18 3 45 17 60 30 33 28 42 29 81 9 16 -9 31 -13 34
-10 3 3 2 5 -3 5 -4 0 -2 7 5 15 7 8 20 15 30 15 14 0 17 5 12 22 -3 14 -1 19
6 14 6 -3 13 -2 17 4 4 6 -4 10 -19 10 -29 0 -44 19 -25 31 10 6 11 9 2 9 -20
0 -28 -4 -25 -12 1 -5 -7 -8 -18 -8 -12 0 -25 10 -32 25 -6 14 -14 25 -18 25
-15 0 -19 -14 -9 -27 9 -10 8 -17 -1 -28 -7 -9 -8 -15 -2 -15 5 0 13 -7 16
-16 3 -8 -14 1 -39 21 -38 32 -44 34 -42 16 1 -11 3 -18 5 -16 6 6 42 -29 42
-41 0 -7 -7 -15 -16 -18 -22 -8 -54 21 -54 48 -1 18 -2 19 -10 4 -11 -18 -4
-48 11 -48 5 0 9 -7 9 -16 0 -13 -8 -15 -40 -12 -22 2 -40 0 -40 -4 0 -5 10
-8 22 -8 16 0 19 -3 11 -11 -12 -12 -53 4 -53 21 0 6 -7 10 -15 10 -12 0 -15
10 -14 45 2 24 5 42 7 40 3 -3 11 0 19 6 7 6 13 8 13 5 0 -4 8 0 18 10 16 16
17 16 20 1 4 -20 23 -22 40 -5 9 9 8 16 -5 30 -15 17 -15 18 5 18 11 0 24 5
28 11 4 6 20 8 40 4 22 -4 34 -2 34 5 0 6 -4 8 -10 5 -5 -3 -10 3 -10 15 0 17
-3 19 -19 10 -14 -7 -21 -6 -24 3 -3 8 -14 2 -33 -16 -44 -43 -118 -88 -122
-74 -2 7 -7 21 -12 32 -5 11 -11 40 -15 64 -7 54 -31 101 -51 101 -12 0 -13 4
-3 21 8 16 13 18 19 9 6 -9 11 -7 20 10 10 18 9 24 -1 31 -23 14 -27 11 -48
-35z m333 -271 c3 -8 12 -12 21 -9 11 5 15 -1 15 -25 0 -41 -10 -39 -38 9 -12
22 -18 40 -13 40 5 0 11 -7 15 -15z"/>
<path d="M1790 2290 c12 -16 26 -30 31 -30 5 0 0 14 -13 30 -12 17 -26 30 -31
30 -4 0 1 -13 13 -30z"/>
<path d="M1228 2205 c-22 -15 -38 -34 -38 -45 0 -25 -1 -25 51 4 58 32 109 29
146 -8 15 -16 35 -26 48 -24 11 1 38 -11 59 -27 41 -31 71 -41 81 -25 3 6 -1
10 -10 10 -16 0 -85 50 -85 61 0 4 15 4 33 0 18 -5 41 -7 51 -5 11 2 20 -5 23
-17 3 -10 10 -19 15 -19 5 0 7 8 3 19 -6 21 20 38 28 17 3 -8 26 -23 51 -36
47 -22 90 -66 80 -81 -3 -5 2 -9 10 -9 8 0 18 5 21 10 3 6 2 10 -2 10 -5 0
-24 25 -42 55 -33 55 -49 71 -36 38 4 -13 1 -12 -15 5 -11 12 -27 22 -35 22
-8 0 -15 7 -15 15 0 18 -9 19 -32 1 -10 -7 -35 -11 -60 -9 -130 11 -154 16
-173 33 -11 10 -42 21 -70 24 -43 6 -55 3 -87 -19z"/>
<path d="M2060 2220 c0 -6 -4 -9 -9 -5 -18 10 -21 -13 -7 -46 8 -19 22 -77 32
-129 14 -70 20 -86 22 -62 2 19 -1 47 -7 64 -6 17 -8 35 -4 42 9 13 21 -26 22
-71 1 -17 7 -33 13 -35 10 -4 10 -10 0 -32 -6 -15 -12 -52 -12 -82 0 -54 0
-54 -27 -50 -14 3 -30 11 -35 18 -4 7 -8 9 -8 5 0 -4 -9 -3 -20 3 -11 6 -20 7
-20 3 0 -14 126 -76 141 -70 10 4 7 8 -8 12 -27 9 -29 18 -7 36 26 21 12 311
-14 295 -5 -3 -13 4 -20 15 -7 10 -8 19 -3 19 5 0 12 -6 14 -12 3 -8 6 -5 6 5
1 10 6 15 12 11 6 -3 0 11 -13 32 -25 38 -48 55 -48 34z"/>
<path d="M2363 2202 c-9 -6 -4 -28 20 -87 17 -44 33 -82 34 -84 1 -2 10 -1 19
3 15 6 15 8 1 24 -9 9 -16 20 -17 24 0 4 -3 14 -6 22 -3 8 -1 23 5 35 15 28
14 51 -4 51 -8 0 -15 5 -15 10 0 12 -20 13 -37 2z"/>
<path d="M1940 2161 c0 -34 -16 -50 -23 -24 -3 10 -5 -3 -6 -29 -1 -30 4 -52
15 -62 18 -19 44 -21 44 -4 0 6 -3 8 -7 5 -10 -11 -33 14 -33 35 0 11 11 34
25 52 19 25 22 35 13 44 -19 19 -28 14 -28 -17z"/>
<path d="M2311 2180 c-1 -3 4 -21 9 -40 23 -76 50 -307 48 -401 -1 -54 2 -102
6 -106 15 -14 -2 337 -19 417 -15 64 -42 145 -44 130z"/>
<path d="M500 2153 c-8 -3 -23 -12 -32 -20 -9 -8 -21 -12 -26 -9 -10 6 -46
-29 -48 -47 0 -7 -2 -17 -2 -23 -1 -6 -14 -16 -28 -23 -25 -11 -25 -13 -10
-30 9 -10 16 -23 16 -29 0 -7 7 -12 16 -12 9 0 29 -9 45 -21 16 -11 39 -22 51
-24 13 -3 37 -7 53 -11 17 -3 41 -14 55 -25 l25 -20 -33 16 c-18 9 -37 15 -41
13 -5 -2 16 -15 45 -30 30 -15 54 -24 54 -19 0 16 -75 82 -99 87 -43 9 -71 24
-33 17 58 -10 34 6 -43 28 -42 13 -75 28 -75 35 0 13 18 9 113 -27 62 -24 61
-9 -3 21 -27 13 -48 25 -46 27 2 3 19 -3 38 -13 29 -15 31 -15 20 -1 -8 9 -29
21 -48 27 -26 9 -34 17 -34 36 0 21 2 23 26 13 24 -8 25 -8 14 6 -18 22 3 18
28 -5 l22 -20 -6 30 c-5 24 -3 30 11 30 13 0 15 -3 7 -12 -7 -9 -5 -23 8 -48
18 -33 19 -33 20 -10 0 14 5 32 11 40 7 11 8 5 3 -22 -8 -49 -1 -75 32 -118
21 -28 25 -30 19 -11 -4 13 -8 37 -9 53 -2 26 -1 28 10 13 7 -9 10 -23 8 -30
-6 -14 34 -96 65 -135 30 -36 26 -18 -11 53 -18 34 -33 69 -34 77 0 8 -2 24
-3 36 0 11 -9 29 -19 40 -19 21 -52 71 -52 78 0 13 29 -7 33 -22 3 -15 5 -15
12 2 6 13 3 23 -10 32 -19 14 -86 18 -115 7z"/>
<path d="M1757 2153 c-8 -13 30 -103 43 -103 11 0 -6 62 -21 70 -6 4 -10 10
-9 14 4 15 -6 30 -13 19z"/>
<path d="M1985 2140 c-3 -5 -4 -37 -3 -70 3 -51 5 -57 16 -43 6 9 12 22 12 27
0 6 5 4 10 -4 5 -8 10 -19 10 -25 0 -5 -5 -3 -10 5 -9 13 -10 13 -10 -1 0 -8
6 -24 14 -34 8 -11 11 -26 8 -34 -3 -9 -1 -12 6 -7 8 5 10 2 6 -9 -10 -24 5
-82 22 -89 32 -12 -4 186 -47 259 -23 38 -25 40 -34 25z"/>
<path d="M1338 2101 c3 -23 10 -31 30 -33 18 -2 28 -12 35 -33 6 -16 14 -33
20 -36 9 -7 -10 -24 -27 -24 -5 0 -11 -6 -13 -12 -3 -9 7 -13 31 -13 29 0 39
-5 48 -25 6 -14 17 -25 23 -25 16 0 24 -30 15 -55 -4 -12 -2 -28 6 -40 8 -11
14 -32 14 -47 0 -33 19 -38 27 -7 3 12 11 18 19 15 9 -3 14 1 14 12 0 17 -20
55 -20 38 0 -5 -6 -5 -13 0 -7 5 -4 1 6 -8 11 -10 15 -18 9 -18 -17 0 -37 32
-38 61 -1 16 1 29 5 30 3 0 14 2 24 4 20 4 47 -20 47 -41 0 -11 6 -13 20 -9
28 9 44 -3 29 -21 -9 -11 -15 -11 -25 -3 -11 9 -16 5 -25 -15 -14 -29 -3 -50
12 -24 11 20 68 38 122 38 30 0 46 -7 74 -35 32 -31 41 -35 72 -29 20 4 38 8
40 10 8 7 57 -25 71 -46 43 -64 46 -66 82 -52 72 26 143 4 174 -53 10 -19 21
-32 25 -29 4 2 12 -3 19 -11 17 -20 70 -20 70 0 0 10 -10 15 -30 15 -16 0 -29
3 -28 8 2 11 -14 46 -26 55 -6 4 3 7 21 5 34 -3 47 14 16 21 -10 2 -29 8 -43
14 -14 5 -29 11 -35 12 -5 1 -12 3 -15 4 -15 8 -77 6 -88 -3 -8 -6 -30 -11
-50 -11 -30 -2 -42 5 -83 47 -42 44 -51 48 -93 48 -32 0 -58 7 -84 24 -20 13
-55 27 -77 30 -60 10 -76 16 -70 27 9 13 -19 11 -33 -3 -10 -10 -17 -7 -35 13
-19 23 -39 35 -65 40 -43 7 -60 66 -22 76 32 8 23 19 -12 16 -44 -3 -74 13
-89 49 -10 25 -10 31 2 38 10 7 8 9 -9 7 -12 0 -22 -4 -22 -7 0 -4 -7 -7 -15
-7 -8 0 -12 3 -10 7 3 4 -4 15 -14 24 -17 15 -17 14 -13 -13z"/>
<path d="M632 2089 c1 -13 8 -23 13 -21 15 3 12 35 -3 40 -9 3 -13 -3 -10 -19z"/>
<path d="M1676 2087 c34 -29 58 -101 39 -117 -6 -5 -15 -7 -19 -3 -4 4 -4 0
-1 -9 9 -23 -4 -45 -16 -27 -7 11 -9 11 -9 1 0 -11 -3 -11 -14 1 -8 7 -13 24
-11 38 1 13 0 16 -2 6 -4 -15 -7 -16 -21 -5 -13 11 -15 11 -7 -2 4 -8 -1 -6
-12 5 -19 18 -20 21 -5 33 16 13 16 13 0 10 -9 -2 -23 5 -30 15 -13 17 -14 17
-13 -5 1 -24 51 -85 66 -80 12 3 11 -32 -1 -44 -7 -7 1 -9 24 -6 18 2 37 -1
40 -7 11 -18 26 -13 26 8 0 11 5 32 11 48 10 27 11 27 22 8 6 -11 17 -26 24
-33 7 -8 10 -18 7 -24 -4 -7 5 -8 26 -3 22 5 44 2 70 -10 51 -23 110 -14 110
16 0 12 -9 32 -20 46 -18 23 -18 27 -3 49 17 26 3 33 -17 9 -13 -16 -40 -21
-40 -7 0 4 5 13 12 20 7 7 8 12 4 12 -11 0 -52 -53 -49 -62 2 -5 -3 -8 -10 -8
-8 0 -19 -11 -25 -25 -13 -27 -19 -30 -42 -15 -12 7 -12 12 -2 22 16 16 16 29
0 23 -7 -3 -20 0 -28 5 -13 9 -13 11 0 20 13 8 12 10 -3 10 -13 0 -17 5 -12
19 4 13 -6 29 -35 55 -22 20 -45 36 -51 36 -5 0 2 -11 17 -23z m282 -152 c6
-3 12 -14 12 -25 0 -16 -6 -20 -35 -20 -35 0 -99 36 -90 50 4 7 85 3 113 -5z"/>
<path d="M2270 2030 c0 -6 4 -9 9 -6 4 3 6 -6 3 -19 -2 -14 -8 -22 -13 -19 -5
3 -9 0 -9 -7 0 -7 -3 -9 -6 -6 -4 4 -2 12 4 20 6 7 7 18 3 25 -20 32 -120
-193 -101 -227 9 -18 10 -23 10 -51 0 -22 7 -19 51 25 17 17 21 18 29 5 8 -12
10 -10 10 8 0 12 -6 22 -14 22 -20 0 -26 12 -19 40 6 22 7 22 20 5 26 -37 43
-27 43 24 0 26 5 52 12 59 7 7 8 12 3 12 -6 0 -3 5 5 10 9 6 10 10 3 10 -6 0
-22 -14 -35 -30 -13 -17 -33 -43 -45 -59 -13 -16 -23 -34 -23 -40 0 -6 -6 -11
-12 -11 -9 0 -8 -3 2 -10 12 -8 12 -10 -3 -16 -33 -12 -39 11 -12 42 24 27 29
39 26 57 0 4 3 7 8 7 5 0 13 10 17 22 3 12 20 32 36 46 18 15 28 32 26 45 -3
22 -28 37 -28 17z"/>
<path d="M1074 1992 c-12 -8 -16 -52 -5 -52 7 0 23 51 17 57 -1 1 -6 -1 -12
-5z"/>
<path d="M1995 1975 c4 -11 10 -41 13 -68 4 -43 16 -66 28 -54 8 8 -17 105
-32 123 -15 18 -15 18 -9 -1z"/>
<path d="M2430 1969 c0 -29 24 -99 34 -99 8 0 8 -2 0 -8 -8 -5 -9 -28 -5 -72
l7 -65 21 40 c20 39 23 41 62 37 l41 -4 -6 33 c-15 80 -64 128 -101 98 -17
-14 -33 -3 -28 20 2 11 -3 22 -11 25 -8 3 -14 1 -14 -5z m101 -107 c-7 -23 -6
-30 1 -26 6 4 9 1 6 -6 -2 -7 -11 -14 -20 -16 -19 -2 -22 40 -6 74 16 32 30
13 19 -26z"/>
<path d="M2394 1782 c0 -92 -4 -194 -8 -227 -5 -46 -4 -56 5 -45 9 13 10 12 5
-3 -3 -10 -6 -23 -6 -28 0 -5 -9 -1 -19 8 -11 9 -18 20 -15 25 7 11 -7 10 -26
-2 -12 -7 -11 -10 5 -16 11 -5 27 -16 35 -25 26 -31 68 -28 68 4 0 12 3 42 6
67 5 35 2 31 -11 -20 -20 -79 -31 -53 -13 32 7 32 10 61 6 65 -3 3 -6 -5 -7
-18 0 -13 -5 -33 -10 -44 -6 -14 -8 -7 -4 26 9 71 7 311 -2 341 -5 17 -8 -38
-9 -140z"/>
<path d="M410 1897 c0 -20 4 -22 45 -19 43 4 48 1 85 -39 22 -24 45 -61 51
-81 7 -21 18 -38 26 -38 8 0 11 4 8 10 -8 14 26 1 48 -18 9 -8 17 -25 17 -37
0 -22 27 -85 36 -85 3 0 2 5 -2 11 -3 6 -6 39 -5 74 1 55 -2 65 -25 89 -15 14
-30 26 -35 26 -4 0 -14 3 -22 6 -11 4 -15 0 -13 -12 2 -10 9 -20 16 -22 7 -3
10 0 6 7 -10 16 -2 14 20 -6 10 -10 20 -25 22 -33 2 -13 0 -12 -10 1 -7 9 -16
17 -21 17 -44 8 -55 15 -52 33 2 11 0 17 -5 14 -5 -3 -11 -1 -15 5 -3 5 -1 10
4 10 22 0 10 16 -29 40 -22 14 -40 28 -40 32 0 5 -9 8 -20 8 -11 0 -36 7 -55
14 -34 14 -35 14 -35 -7z"/>
<path d="M1193 1863 c-28 -5 -30 -23 -3 -23 11 0 20 -3 21 -7 0 -5 2 -15 4
-24 5 -28 -10 -43 -26 -26 -16 16 -49 19 -49 4 0 -5 -6 -4 -14 2 -11 10 -17 7
-30 -10 -17 -25 -13 -40 6 -21 7 7 27 12 46 12 30 0 35 -4 54 -50 11 -27 24
-50 28 -50 14 0 20 -30 10 -55 -5 -14 -16 -25 -25 -25 -8 0 -15 -5 -15 -10 0
-6 -8 -10 -17 -8 -23 4 -59 36 -50 45 4 3 7 1 7 -5 0 -6 7 -9 17 -5 10 4 14 2
10 -4 -3 -5 1 -10 9 -10 12 0 13 3 2 13 -22 21 -58 27 -58 11 0 -9 -7 -14 -17
-12 -10 2 -20 4 -22 4 -2 1 4 10 13 20 10 11 25 18 34 17 10 -2 25 4 34 13 16
16 16 17 -2 28 -14 10 -19 9 -24 -3 -3 -9 -1 -12 4 -9 6 3 10 2 10 -3 0 -10
-66 -27 -89 -23 -13 2 -13 0 -2 -13 18 -22 11 -27 -25 -17 -31 8 -36 22 -20
60 8 18 7 26 -7 36 -14 10 -15 14 -5 18 11 4 11 6 0 6 -7 1 -10 6 -7 11 3 6 3
10 0 10 -10 0 -35 -67 -35 -93 0 -14 7 -30 15 -37 9 -7 15 -29 15 -52 0 -22 5
-40 13 -42 6 -2 21 -7 32 -11 20 -7 20 -7 0 -15 -12 -4 -23 -3 -27 4 -4 6 -8
-1 -8 -16 0 -20 -5 -28 -18 -28 -16 0 -18 6 -12 43 8 61 -7 97 -43 97 -15 0
-42 -6 -60 -14 -36 -15 -117 -96 -117 -116 0 -7 11 -1 25 14 31 33 77 35 99 4
22 -31 13 -34 -28 -8 -20 12 -36 17 -36 11 0 -6 6 -11 14 -11 7 0 20 -7 27
-17 13 -15 11 -16 -15 -11 -40 8 -76 -16 -75 -51 0 -23 1 -24 9 -6 4 12 15 27
23 34 14 11 16 9 14 -8 -1 -12 -5 -21 -9 -21 -4 0 -8 -4 -8 -9 0 -4 10 -8 22
-7 16 1 22 -6 25 -26 3 -24 -1 -28 -34 -37 -21 -6 -41 -7 -45 -3 -5 5 -15 37
-22 73 -8 35 -24 89 -35 119 -22 58 -28 105 -11 95 5 -3 7 0 4 8 -3 8 -16 19
-30 26 -14 6 -23 14 -20 19 7 11 -21 45 -34 40 -7 -2 -4 -13 10 -30 16 -21 20
-36 15 -60 -3 -18 2 -75 13 -125 19 -96 17 -118 -11 -107 -23 8 -38 72 -36
144 1 36 -3 65 -11 75 -10 13 -9 15 6 16 15 0 14 2 -6 10 -20 8 -22 12 -10 20
13 9 13 10 -1 6 -9 -3 -22 -1 -30 4 -12 7 -12 9 1 10 8 1 18 1 21 1 4 -1 4 9
1 21 -5 19 -7 20 -10 4 -3 -13 -10 -17 -23 -14 -10 3 -17 1 -13 -4 3 -5 0 -9
-5 -9 -6 0 -11 7 -11 16 0 8 -4 13 -9 9 -5 -3 -13 5 -17 17 -9 28 -26 46 -40
41 -6 -2 -17 4 -25 14 -10 12 -10 15 -1 9 7 -4 19 -2 27 4 12 10 24 9 56 -4
49 -20 56 -17 29 14 -11 12 -17 27 -14 31 10 18 -37 9 -52 -10 -13 -15 -23
-17 -53 -10 -84 20 -158 3 -181 -42 -6 -11 -22 -24 -35 -29 -15 -6 -35 -32
-55 -74 -27 -54 -31 -73 -26 -103 4 -21 8 -48 10 -61 5 -32 55 -82 83 -82 13
0 32 9 43 20 26 26 44 25 72 -3 21 -20 48 -60 48 -71 0 -2 -9 -6 -21 -9 -20
-5 -20 -6 -3 -38 9 -18 23 -39 30 -47 20 -19 17 -40 -10 -94 -35 -70 -34 -139
5 -195 16 -24 29 -47 29 -52 0 -4 26 -25 59 -46 63 -41 109 -102 176 -230 21
-38 41 -69 47 -67 5 1 7 -2 3 -7 -10 -16 56 -123 107 -173 56 -55 158 -114
231 -134 28 -8 111 -22 182 -33 111 -16 155 -18 305 -10 205 9 278 18 258 30
-9 6 -5 9 15 10 15 1 30 2 35 4 4 1 25 5 47 10 42 8 89 34 80 43 -6 6 34 42
47 42 5 0 7 4 4 9 -3 5 1 12 10 15 8 3 13 10 10 15 -4 5 0 16 8 24 8 8 12 17
9 21 -4 3 1 6 11 6 11 0 15 -5 10 -12 -4 -7 -3 -9 1 -5 18 16 13 35 -9 30 -19
-4 -18 -3 4 12 l25 16 -25 -7 c-26 -7 -40 -21 -40 -41 0 -6 -7 -19 -16 -27
-14 -15 -14 -16 3 -17 13 -1 10 -3 -7 -8 -14 -4 -24 -13 -23 -19 2 -7 -3 -12
-11 -12 -13 0 -31 -26 -28 -41 1 -4 -25 -13 -56 -21 -31 -8 -66 -19 -77 -23
-15 -6 -17 -5 -9 4 6 7 33 18 60 26 27 7 42 14 34 15 -11 1 -9 4 5 10 19 8 18
9 -4 9 -14 1 -33 -7 -44 -16 -12 -11 -35 -18 -62 -18 -37 0 -41 -2 -24 -11 18
-9 12 -13 -44 -28 -35 -10 -79 -16 -98 -13 -33 4 -33 4 6 6 22 1 49 9 60 18
15 12 16 14 3 10 -9 -3 -34 -9 -55 -12 -68 -11 -84 -15 -79 -23 5 -9 -181 -5
-244 4 -35 6 -40 9 -25 15 18 7 18 8 -5 10 -24 1 -51 4 -77 7 -7 1 -22 12 -35
25 -18 17 -35 22 -78 23 -36 1 -48 -2 -35 -7 11 -4 37 -8 57 -8 20 -1 40 -6
43 -11 4 -7 -6 -9 -28 -6 -19 2 -47 -2 -61 -9 -14 -8 -28 -10 -31 -5 -3 4 1
10 7 13 7 2 -15 7 -50 11 -35 4 -60 11 -57 17 4 5 0 9 -8 9 -16 0 -57 41 -57
58 0 14 -45 27 -61 16 -8 -4 -9 -3 -5 4 4 7 15 12 24 13 14 0 13 2 -3 9 -20 9
-20 9 0 10 20 1 20 1 0 10 -11 5 -27 9 -35 9 -13 1 -13 0 0 -9 13 -8 12 -10
-3 -10 -17 0 -25 11 -31 42 -7 32 -27 68 -38 68 -9 0 -9 3 2 10 12 7 10 11
-10 19 -14 5 -18 10 -10 11 10 1 9 4 -5 10 -18 8 -18 9 5 10 24 1 23 2 -7 15
-18 8 -33 17 -33 20 0 3 5 3 10 0 6 -3 14 -3 20 0 14 9 -18 55 -39 56 -12 0
-11 2 4 9 17 7 16 9 -10 10 -26 1 -27 3 -10 10 19 8 19 9 -2 9 -13 1 -23 5
-23 11 0 5 6 7 14 4 11 -4 13 0 9 14 -4 19 -1 20 39 15 23 -3 44 -10 46 -14 2
-5 31 -9 65 -8 l62 1 -60 13 c-33 7 -94 18 -135 23 l-75 9 64 2 c84 1 74 10
-19 16 -75 5 -106 14 -54 16 23 1 20 3 -16 11 -51 11 -84 34 -35 25 l30 -6
-30 14 c-16 8 -38 14 -47 15 -20 0 -35 20 -16 20 7 0 -1 9 -18 19 -39 24 -58
49 -23 30 22 -11 23 -11 10 4 -7 10 -21 17 -30 18 -11 0 -12 2 -3 6 8 3 9 9 4
16 -14 18 -22 47 -14 47 4 0 12 -10 17 -22 6 -13 15 -23 20 -23 6 0 27 -18 48
-40 20 -21 37 -35 37 -31 0 5 9 -3 21 -18 11 -14 25 -23 30 -20 6 4 3 14 -7
25 -27 30 -11 23 70 -31 42 -28 77 -50 79 -50 2 0 4 6 4 14 0 8 -6 12 -14 9
-23 -9 -14 23 18 63 17 21 50 77 75 125 24 47 55 96 68 108 43 41 139 41 149
0 3 -12 11 -19 19 -16 20 7 48 -11 58 -38 5 -13 18 -29 29 -34 18 -10 19 -8
14 22 -10 64 54 174 121 207 50 24 122 26 172 5 33 -13 35 -13 30 3 -16 59
-19 63 -32 58 -18 -7 -54 48 -47 73 3 11 -1 18 -11 18 -8 0 -13 -4 -10 -9 7
-11 -7 -10 -26 2 -9 6 -10 10 -3 10 8 0 7 9 -5 29 -11 19 -19 26 -24 18 -4 -6
-2 -14 3 -18 14 -9 13 -20 -3 -30 -19 -13 -40 -11 -32 3 4 6 3 8 -3 5 -11 -7
-45 28 -36 37 4 3 -1 6 -10 6 -9 0 -17 5 -17 11 0 15 70 41 89 33 9 -4 21 -8
26 -9 6 -1 12 -3 15 -5 13 -7 50 -6 50 1 0 5 -5 9 -11 9 -6 0 -20 10 -31 23
-11 12 -16 16 -13 9 5 -10 2 -13 -11 -10 -13 2 -20 13 -22 34 -3 27 1 33 28
44 38 16 20 33 -18 19 -26 -10 -47 5 -35 25 3 5 1 6 -4 3 -18 -11 -24 24 -11
54 18 41 53 39 69 -4 6 -18 29 -46 50 -62 22 -16 38 -34 37 -40 -2 -6 7 -23
19 -38 23 -29 39 -28 81 4 19 14 34 17 70 12 26 -3 45 -4 42 -1 -17 16 -72 50
-67 42 4 -7 -8 -11 -31 -11 -36 -1 -36 0 -10 10 15 6 26 17 25 27 -1 16 -4 15
-32 -4 -40 -28 -46 -37 -42 -63 3 -18 1 -19 -13 -11 -17 11 -19 17 -22 63 -1
14 -5 25 -9 25 -4 0 -9 6 -12 13 -2 6 -3 5 -2 -4 1 -9 -3 -16 -9 -16 -7 0 -12
10 -12 21 1 12 -6 22 -18 24 -20 4 -29 12 -56 46 -8 11 -10 17 -3 13 7 -5 25
-1 41 7 16 8 31 14 33 13 2 -1 -2 4 -10 10 -10 8 -18 9 -26 3 -7 -5 -15 -7
-19 -3 -4 4 -4 0 -1 -9 5 -13 2 -15 -14 -11 -11 3 -18 10 -14 16 3 6 1 7 -5 3
-6 -4 -10 -12 -8 -19 1 -7 1 -9 -1 -4 -3 4 -11 7 -19 7 -13 0 -18 12 -15 33 0
4 0 6 -1 6 -2 -1 -13 -4 -25 -6z m-805 -104 c13 -10 36 -20 52 -24 21 -5 30
-14 35 -36 5 -21 16 -33 40 -43 18 -8 36 -19 39 -25 4 -6 11 -9 16 -6 4 3 5
-7 1 -22 -7 -25 -41 -47 -41 -26 0 5 -7 18 -15 29 -14 18 -14 17 -9 -13 6 -31
5 -33 -24 -33 -34 0 -57 22 -48 47 5 16 5 16 -8 0 -13 -17 -12 -23 2 -52 9
-18 19 -30 22 -26 9 13 39 20 45 11 11 -18 14 -50 4 -50 -5 0 -9 -7 -9 -15 0
-8 6 -15 14 -15 8 0 16 -5 18 -11 2 -6 3 9 3 34 0 25 -3 43 -7 40 -5 -2 -8 5
-8 17 0 17 5 21 28 18 29 -3 43 -38 23 -61 -5 -7 -13 -36 -17 -64 l-6 -52 34
5 c36 6 34 9 40 -61 2 -21 -1 -29 -11 -27 -9 2 -11 -3 -7 -13 3 -8 9 -22 12
-30 4 -11 0 -15 -15 -15 -16 0 -21 6 -21 24 0 18 -6 26 -22 29 -22 3 -22 4 -4
12 32 14 57 43 42 48 -7 3 -18 -4 -25 -15 -7 -11 -18 -17 -25 -15 -19 7 -65
-40 -101 -102 -16 -28 -35 -60 -42 -69 -12 -16 -12 -16 -13 0 0 10 14 39 30
65 17 26 30 53 30 60 0 14 -33 34 -52 31 -6 -2 -13 5 -14 15 -1 13 -1 14 3 1
4 -14 7 -14 24 2 10 9 19 13 19 7 0 -5 6 -17 13 -27 13 -17 14 -17 31 8 16 26
16 28 -8 74 -28 53 -41 91 -38 109 2 8 -3 10 -14 6 -11 -4 -15 -2 -11 4 4 6
-3 22 -14 37 l-21 26 21 8 c15 5 18 11 11 22 -7 10 -10 11 -10 3 0 -7 -10 -13
-21 -13 -17 0 -19 3 -10 14 10 12 9 14 -6 12 -23 -4 -19 -36 8 -55 25 -17 24
-37 -1 -51 -11 -6 -20 -7 -20 -3 0 4 -6 -1 -13 -11 -12 -16 -14 -16 -26 -2
-11 13 -10 20 7 42 l19 27 -24 21 c-28 25 -23 62 6 47 13 -7 20 -5 29 10 15
23 56 25 96 4 27 -14 31 -14 45 1 9 9 10 14 4 10 -8 -4 -13 -2 -13 6 0 9 -3 9
-10 -2 -5 -8 -10 -10 -10 -5 0 14 -58 36 -65 25 -3 -5 -16 -7 -30 -6 -13 2
-23 0 -22 -3 2 -7 -7 -11 -28 -11 -8 0 -15 8 -15 18 0 13 -2 14 -9 4 -4 -7 -6
-24 -3 -38 4 -22 1 -24 -24 -23 -38 3 -72 -9 -71 -24 1 -44 -3 -57 -16 -46
-16 16 -14 58 4 70 8 5 10 9 6 9 -20 0 16 39 43 45 16 4 30 10 30 15 0 4 14
13 32 19 17 6 29 14 25 17 -3 3 -14 1 -25 -5 -27 -15 -32 -14 -32 4 0 18 39
35 83 35 29 0 30 1 11 15 -18 13 -18 14 6 8 14 -3 35 -14 48 -24z m-120 -162
c16 -19 25 -64 14 -71 -6 -3 -22 -7 -35 -8 -20 -2 -27 -9 -32 -36 -4 -24 -11
-32 -23 -30 -10 2 -16 11 -14 21 2 10 -4 17 -13 17 -9 0 -13 5 -10 10 3 6 0
10 -7 11 -7 0 -3 5 9 11 12 6 24 22 28 36 11 44 60 67 83 39z m782 -17 c-12
-22 -50 -27 -50 -7 0 20 10 27 37 27 21 0 22 -3 13 -20z m-120 -4 c0 -7 3 -28
6 -45 5 -24 3 -31 -10 -31 -13 0 -14 -4 -4 -25 10 -22 16 -25 42 -19 17 3 38
12 47 20 8 8 20 14 26 14 6 0 16 7 23 15 7 8 19 15 28 15 13 0 12 -3 -3 -20
-10 -11 -25 -20 -34 -20 -9 0 -24 -9 -34 -20 -10 -12 -30 -20 -49 -21 l-33 -1
30 -9 c17 -5 44 -7 62 -4 26 5 34 2 43 -16 15 -27 -10 -60 -32 -42 -18 15
-118 33 -118 21 0 -5 -5 -6 -10 -3 -12 7 -26 -23 -15 -33 3 -4 13 1 20 11 12
17 16 17 59 3 59 -20 80 -20 97 0 12 14 14 14 26 -2 12 -17 13 -16 13 4 0 15
8 24 25 28 31 8 55 40 55 74 0 20 2 22 10 10 5 -8 10 -41 10 -72 0 -61 -14
-80 -81 -110 -24 -11 -29 -19 -29 -46 0 -27 -11 -63 -25 -80 -1 -1 -23 10 -49
25 -26 16 -56 33 -67 39 -11 6 -33 24 -50 40 -16 15 -29 24 -29 18 -1 -25 -20
25 -20 52 0 31 40 81 53 67 4 -3 7 1 7 11 0 9 -7 19 -16 23 -8 3 -13 12 -10
19 9 23 -5 44 -43 64 -31 16 -34 19 -17 26 14 5 25 0 41 -19 16 -21 24 -24 33
-15 18 18 15 27 -8 21 -15 -4 -20 0 -20 15 0 11 6 23 13 25 23 10 37 7 37 -7z
m198 -2 c12 -8 22 -18 22 -22 0 -6 -32 -7 -72 -3 -5 1 -8 10 -8 21 0 24 26 26
58 4z m41 -72 c14 -26 3 -58 -24 -76 -20 -13 -25 -13 -46 2 -13 9 -35 22 -49
29 -22 10 -18 11 38 12 34 1 62 4 62 7 0 3 -10 14 -22 25 l-23 18 27 1 c17 0
31 -7 37 -18z m-904 -18 c0 -10 -8 -20 -17 -22 -18 -3 -26 27 -11 42 12 11 28
0 28 -20z m130 -14 c25 -27 14 -34 -29 -19 -48 17 -46 28 5 38 3 0 14 -8 24
-19z m946 -59 c21 -26 20 -48 -2 -42 -46 11 -73 11 -80 -1 -6 -10 -9 -8 -9 7
0 17 -2 18 -11 5 -9 -12 -10 -11 -6 8 3 12 1 22 -4 22 -15 0 -10 19 11 40 20
20 22 20 51 3 17 -10 40 -29 50 -42z m-453 17 c3 -13 -3 -18 -21 -18 -29 0
-55 25 -35 33 24 10 53 2 56 -15z m-456 -48 c18 -16 28 -30 22 -30 -6 0 -19 9
-29 20 -10 11 -24 20 -32 20 -7 0 -13 5 -13 10 0 18 19 11 52 -20z m263 -20
c17 -6 27 -20 32 -40 5 -28 8 -30 39 -24 36 7 96 -9 114 -31 8 -10 8 -19 -2
-34 -16 -26 -28 -27 -28 -3 0 13 -2 14 -9 3 -7 -11 -11 -10 -20 6 -5 11 -8 23
-5 26 5 4 -55 2 -66 -3 -3 -1 -8 -2 -12 -1 -4 0 -22 -6 -41 -14 -19 -8 -38
-11 -42 -7 -4 4 -4 -4 -1 -18 l7 -25 -15 25 c-20 33 -20 70 -1 70 8 0 15 -4
15 -10 0 -5 -5 -10 -11 -10 -5 0 -8 -4 -4 -10 3 -5 12 -7 20 -4 8 4 12 10 9
15 -3 5 0 9 7 9 8 0 7 5 -2 17 -10 11 -10 14 -1 9 8 -5 12 0 12 13 0 18 -3 19
-27 10 -20 -7 -28 -6 -35 3 -22 36 10 50 67 28z m-162 -94 c6 -15 0 -21 -50
-49 -40 -22 -45 -5 -12 37 22 28 54 34 62 12z m255 -62 c3 -40 1 -46 -14 -40
-14 5 -15 4 -4 -9 7 -9 10 -18 7 -22 -9 -9 -38 18 -34 31 2 6 -2 17 -10 24
-19 20 -16 27 20 45 17 8 32 16 32 16 0 1 1 -20 3 -45z m-146 2 c6 -14 7 -33
4 -43 -7 -16 -10 -15 -32 10 -13 15 -24 35 -24 43 0 24 39 16 52 -10z m-87
-11 c0 -22 -131 -119 -147 -109 -6 4 -5 -3 1 -15 14 -26 16 -26 50 -2 15 11
40 23 55 27 16 4 25 12 22 19 -5 14 23 45 41 45 6 0 27 -16 48 -35 29 -28 44
-35 71 -33 18 1 36 -1 39 -4 7 -6 -12 -43 -32 -66 -7 -7 -13 -17 -13 -22 0 -5
-12 -22 -26 -39 -25 -30 -27 -30 -52 -16 -15 8 -52 24 -84 35 -31 12 -73 34
-95 51 -41 32 -70 84 -53 94 6 3 10 1 10 -6 0 -6 10 1 22 16 27 34 108 87 128
83 8 -2 15 -12 15 -23z m135 -5 c-8 -15 -8 -20 2 -20 11 0 10 -2 0 -9 -10 -6
-10 -10 3 -21 8 -7 15 -8 15 -2 0 14 37 3 44 -13 2 -7 -3 -16 -12 -20 -9 -3
-18 -1 -20 5 -3 8 -8 8 -17 0 -7 -6 -20 -8 -29 -4 -22 9 -22 73 2 90 23 18 24
17 12 -6z"/>
<path d="M340 1732 c0 -18 16 -31 46 -37 6 -2 11 3 11 10 0 7 -8 10 -19 7 -12
-3 -18 1 -18 11 0 9 -4 19 -10 22 -5 3 -10 -3 -10 -13z"/>
<path d="M430 1496 c0 -7 6 -19 13 -25 8 -6 22 -36 32 -66 11 -30 23 -54 28
-52 5 1 8 6 8 10 -1 4 -1 16 -1 27 0 12 -7 20 -17 20 -16 0 -16 2 -3 11 11 8
12 12 3 16 -7 2 -13 18 -13 33 0 16 -4 32 -10 35 -6 4 -7 -1 -3 -11 4 -12 2
-15 -8 -12 -8 3 -13 11 -11 17 1 6 -2 11 -8 11 -5 0 -10 -6 -10 -14z"/>
<path d="M1390 1849 c0 -27 25 -57 37 -45 9 8 43 -24 43 -40 0 -8 6 -11 16 -7
16 6 16 7 1 18 -9 7 -14 14 -11 17 3 4 -13 14 -35 24 -22 9 -38 20 -36 24 2 3
0 12 -6 20 -6 11 -9 9 -9 -11z"/>
<path d="M2499 1754 c-5 -15 -12 -31 -15 -35 -2 -5 27 -7 66 -6 38 1 70 5 70
8 0 18 -29 28 -57 20 -34 -10 -55 2 -46 25 3 8 2 14 -1 14 -4 0 -11 -12 -17
-26z"/>
<path d="M1636 1761 c-18 -7 -18 -8 5 -14 13 -4 26 -2 27 3 9 27 86 -11 102
-51 9 -21 16 -25 40 -21 17 2 30 9 30 14 0 5 -10 8 -22 6 -15 -2 -28 6 -44 29
-12 18 -24 29 -28 26 -3 -4 -6 -1 -6 5 0 13 -73 15 -104 3z"/>
<path d="M2025 1760 c-4 -6 -5 -12 -4 -14 37 -27 77 -42 94 -36 18 7 18 9 -8
19 -16 6 -31 11 -34 11 -4 0 -14 7 -24 16 -12 11 -19 12 -24 4z"/>
<path d="M1580 1725 c0 -2 8 -20 17 -39 16 -34 19 -35 54 -30 29 5 41 2 58
-15 22 -22 41 -28 41 -13 0 5 -9 17 -20 27 -11 10 -17 22 -13 28 4 6 1 7 -7 2
-7 -4 -16 -2 -22 6 -8 11 -9 10 -4 -3 3 -10 1 -18 -3 -18 -5 0 -11 6 -14 13
-3 9 -7 9 -19 0 -12 -11 -17 -9 -28 12 -11 21 -40 43 -40 30z"/>
<path d="M1866 1707 c-17 -12 -17 -15 1 -50 12 -24 24 -36 34 -33 9 2 27 -5
40 -15 21 -16 69 -27 69 -15 0 2 -7 17 -15 32 -14 28 -15 28 -15 5 0 -23 -1
-24 -20 -6 -10 9 -18 22 -17 27 1 6 -5 13 -13 15 -12 4 -12 3 -1 -5 8 -6 9
-12 3 -16 -13 -8 -65 41 -57 54 4 6 11 7 17 4 7 -4 8 -2 4 4 -9 15 -8 15 -30
-1z"/>
<path d="M2632 1690 c-27 -26 -36 -30 -42 -19 -5 7 -12 10 -16 6 -4 -4 -2 -13
4 -19 10 -10 17 -10 32 0 26 16 38 15 57 -4 18 -17 54 -15 61 4 2 7 -8 15 -27
18 -20 4 -31 13 -33 27 -3 19 -6 18 -36 -13z"/>
<path d="M2466 1693 c-11 -11 -6 -23 7 -17 7 2 21 -3 32 -11 19 -15 19 -16
-10 -10 -29 5 -30 4 -33 -35 -3 -46 5 -50 38 -15 15 16 19 25 10 25 -7 0 -10
3 -7 6 12 12 37 -18 37 -43 0 -23 3 -25 28 -19 39 10 66 8 70 -3 4 -13 32 13
32 29 0 12 -19 10 -72 -6 -14 -4 -18 1 -18 19 0 25 -22 52 -33 40 -4 -3 -7 3
-7 15 0 12 -4 22 -10 22 -5 0 -10 -5 -10 -11 0 -7 -9 -5 -24 4 -13 9 -26 13
-30 10z"/>
<path d="M1777 1654 c-6 -7 9 -38 33 -68 8 -10 14 -20 13 -22 -10 -16 0 -44
15 -44 10 0 31 -13 48 -29 16 -16 38 -30 49 -32 23 -5 75 -100 77 -140 1 -16
-10 -38 -26 -55 -14 -16 -26 -23 -26 -16 0 6 -7 12 -15 12 -9 0 -12 6 -9 15 4
8 11 12 16 9 6 -4 5 2 -1 14 -13 25 -14 35 -2 28 5 -3 11 3 14 14 4 17 2 18
-15 9 -13 -7 -18 -7 -14 -1 3 6 2 12 -3 14 -5 1 -19 19 -31 38 -12 19 -20 27
-16 18 3 -10 2 -18 -3 -18 -5 0 -15 20 -22 45 -7 25 -16 45 -20 45 -10 0 2
-84 13 -89 14 -5 52 -43 71 -71 18 -26 22 -45 8 -36 -5 3 -11 -3 -14 -13 -3
-15 -13 -19 -36 -19 -17 1 -31 5 -31 10 0 8 16 12 33 9 5 -1 6 3 2 9 -3 6 -11
8 -16 5 -12 -8 -11 12 2 36 9 17 7 21 -10 26 -11 3 -23 4 -27 3 -13 -3 -23 24
-13 36 7 8 6 15 -2 20 -8 5 -9 3 -4 -6 6 -10 4 -12 -9 -7 -10 4 -15 3 -11 -3
4 -6 -4 -5 -19 1 -16 8 -23 17 -19 28 4 9 3 13 -2 9 -4 -4 -14 -3 -21 3 -23
19 -26 -10 -5 -37 12 -15 21 -41 21 -59 0 -36 37 -90 46 -67 3 6 9 10 13 8 4
-3 7 3 7 13 0 12 -6 16 -22 13 -12 -2 -25 1 -28 7 -4 6 -2 11 5 11 9 0 9 4 -1
15 -6 8 -9 19 -5 25 8 13 35 13 35 0 0 -6 11 -15 25 -20 18 -7 25 -17 25 -35
0 -14 -4 -25 -10 -25 -5 0 -10 -7 -10 -15 0 -9 -6 -12 -15 -9 -10 4 -15 0 -15
-11 0 -31 -63 -71 -94 -59 -8 3 -17 1 -21 -5 -3 -6 0 -11 7 -11 7 0 2 -7 -11
-16 -17 -12 -35 -15 -73 -10 -39 6 -48 4 -42 -6 5 -9 3 -9 -7 1 -10 10 -11 15
-2 18 8 3 7 11 -3 31 -8 15 -14 32 -14 39 0 6 -18 25 -39 42 -40 32 -40 32
-40 104 0 40 -1 83 -3 96 -4 34 26 51 49 28 17 -17 17 -18 -4 -23 -12 -3 -24
-12 -27 -20 -8 -20 8 -17 29 6 10 11 26 20 36 20 10 0 21 5 24 10 3 6 23 19
43 30 l37 20 -30 -2 c-16 -1 -41 -10 -54 -20 -32 -25 -43 -13 -27 27 14 33 14
34 -4 23 -10 -7 -18 -14 -18 -17 2 -23 -4 -32 -19 -27 -10 3 -29 -3 -43 -13
-21 -17 -23 -22 -12 -45 6 -14 8 -26 3 -26 -15 0 -41 36 -41 58 0 11 -5 24
-12 28 -7 4 -8 3 -4 -4 4 -7 1 -12 -9 -12 -9 0 -14 4 -11 8 2 4 -4 9 -15 9
-34 3 -14 -31 36 -59 37 -20 58 -76 52 -140 -4 -43 -1 -50 35 -89 68 -74 71
-92 19 -102 -40 -8 -111 -73 -111 -101 1 -18 3 -17 16 8 13 22 18 26 25 15 5
-8 9 -11 9 -7 0 4 15 1 32 -7 29 -12 33 -18 35 -54 1 -35 -2 -41 -18 -41 -11
0 -17 5 -14 10 4 6 -5 10 -20 10 -18 0 -25 -4 -22 -13 4 -11 -31 -45 -37 -35
0 2 -10 14 -21 27 -11 14 -15 21 -9 18 7 -4 14 -1 17 6 3 7 -3 13 -13 13 -10
0 -18 -3 -18 -6 2 -21 -6 -20 -30 3 -17 16 -43 29 -63 31 -19 2 -41 6 -50 10
-11 5 -18 1 -22 -13 -6 -26 24 -37 51 -20 17 10 25 9 46 -5 15 -9 31 -29 37
-43 5 -15 15 -23 23 -20 7 3 19 1 27 -4 11 -7 10 -10 -8 -15 -12 -3 -27 -18
-33 -34 -10 -23 -8 -33 9 -61 24 -38 27 -65 9 -71 -15 -5 61 -58 84 -58 9 0
24 -3 34 -7 25 -9 -177 -53 -254 -54 -35 -1 -68 3 -73 8 -7 7 27 12 98 16 153
7 182 23 108 58 -16 8 -38 31 -49 52 -19 36 -19 39 -3 48 9 6 17 17 17 25 0
25 -39 -3 -57 -41 -17 -36 -36 -45 -80 -39 -124 16 -201 25 -215 25 -23 1 -54
80 -64 164 -4 39 -9 59 -11 45 -2 -14 -8 -50 -14 -82 -10 -47 -15 -57 -35 -61
-13 -2 -34 1 -47 8 -19 9 -29 10 -46 1 -20 -11 -17 -13 36 -30 32 -9 78 -25
103 -35 40 -17 239 -57 375 -77 47 -7 48 -8 20 -15 -23 -5 -14 -7 35 -8 50 -1
61 -4 47 -12 -20 -12 -250 -32 -339 -30 -31 0 -60 -4 -63 -9 -4 -6 16 -10 52
-10 32 -1 81 -3 108 -7 89 -10 156 -3 402 42 134 25 259 45 278 45 68 0 274
66 378 121 21 11 42 17 47 14 6 -4 9 -1 8 7 -2 7 8 14 22 16 14 2 32 10 40 17
8 8 19 14 25 14 5 0 12 7 15 17 5 13 9 14 14 5 6 -9 14 -7 30 11 11 12 20 27
18 32 -2 5 4 4 12 -3 17 -14 15 -19 -22 -68 -13 -18 -20 -33 -14 -33 13 0 62
65 62 84 0 8 -5 18 -10 21 -6 4 -8 11 -5 16 4 5 -3 9 -14 9 -26 0 -51 10 -51
21 0 15 32 10 79 -11 35 -16 41 -17 30 -4 -7 8 -26 22 -43 30 l-31 14 40 -5
c22 -2 35 -2 29 1 -7 3 -10 14 -7 25 4 13 1 19 -8 17 -8 -2 -14 4 -13 12 1 10
-8 17 -24 18 -36 3 -38 9 -11 31 28 22 59 12 59 -20 0 -17 3 -18 23 -8 12 6
24 13 26 15 6 5 -27 34 -38 34 -16 0 -13 16 4 30 9 7 13 15 10 18 -10 10 -55
8 -52 -3 2 -5 -10 -19 -27 -29 -19 -12 -26 -21 -18 -24 10 -3 8 -8 -5 -17 -14
-11 -15 -16 -6 -26 6 -6 9 -19 6 -28 -5 -14 -4 -15 8 0 13 14 16 13 38 -8 23
-22 23 -23 3 -23 -11 0 -27 -3 -35 -6 -10 -3 -19 6 -28 30 -10 25 -18 33 -28
27 -10 -7 -11 -13 -1 -31 16 -30 -4 -101 -38 -132 l-25 -23 7 27 c3 15 1 30
-5 33 -5 4 -8 19 -4 33 3 15 6 46 7 69 1 29 6 44 17 48 9 3 25 18 36 34 14 21
22 27 28 18 6 -8 7 -6 3 6 -3 10 -6 24 -7 30 0 7 -4 2 -9 -10 -9 -23 -40 -32
-40 -13 0 6 5 10 10 10 6 0 10 8 10 18 0 23 -47 26 -53 3 -3 -11 -5 -9 -6 7 0
12 4 22 9 22 6 0 9 4 8 9 -2 5 2 9 7 9 6 0 9 -4 7 -9 -1 -5 2 -9 8 -9 5 0 10
8 10 19 0 17 -53 49 -72 43 -5 -1 -8 5 -8 13 0 8 -5 15 -11 15 -7 0 -10 -14
-7 -35 2 -20 -1 -35 -7 -36 -5 -1 1 -4 14 -8 27 -7 44 -50 35 -88 -4 -13 -2
-23 5 -23 6 0 8 -6 5 -13 -3 -8 -18 -14 -34 -14 -18 0 -27 5 -24 11 3 6 -1 3
-9 -6 -17 -22 -31 -23 -23 -3 3 8 1 15 -5 15 -6 0 -7 5 -3 11 4 7 -1 7 -16 -1
-30 -16 -34 -8 -16 34 8 20 15 39 15 42 0 3 9 14 20 24 l21 18 -24 0 c-14 0
-25 -3 -24 -7 1 -3 -4 -19 -11 -36 -26 -61 -30 -83 -15 -89 26 -10 14 -36 -23
-51 -20 -9 -43 -13 -50 -11 -7 3 -13 1 -13 -4 0 -5 -12 -13 -27 -16 -16 -4
-36 -16 -47 -26 -12 -13 -27 -18 -42 -15 -13 2 -24 0 -24 -5 0 -5 -4 -6 -10
-3 -5 3 -10 2 -10 -4 0 -5 -12 -10 -27 -10 -16 1 -50 -4 -78 -10 -27 -6 -106
-20 -175 -32 -127 -20 -194 -43 -219 -72 -15 -19 -31 -22 -31 -7 0 19 75 59
140 74 36 8 115 25 175 36 125 25 230 63 327 120 71 43 72 44 52 132 -5 20 -1
29 15 38 12 6 26 8 31 5 6 -3 10 1 10 9 0 18 35 22 45 6 3 -5 11 -10 16 -10 6
0 7 5 4 10 -4 6 5 10 19 10 28 0 36 26 14 48 -18 18 -27 15 -38 -13 -5 -14
-15 -25 -21 -25 -7 0 -9 3 -6 7 4 3 -2 13 -14 21 -17 11 -23 12 -32 2 -9 -10
-9 -11 0 -6 6 3 14 2 18 -4 3 -5 1 -10 -4 -10 -6 0 -20 -9 -32 -21 -26 -26
-38 -16 -13 12 17 19 17 22 2 33 -11 8 -14 17 -8 26 6 9 0 20 -16 33 -20 15
-22 22 -13 33 9 12 9 13 -4 9 -10 -4 -17 1 -22 14 -3 12 -13 21 -21 21 -8 0
-14 5 -14 10 0 6 -18 17 -39 26 -27 11 -38 20 -34 30 4 10 0 12 -13 7 -17 -6
-17 -5 -5 11 12 15 12 17 0 14 -9 -2 -14 6 -14 24 0 14 -4 30 -8 34 -4 5 -5 1
-2 -7 4 -10 0 -16 -9 -16 -8 0 -13 3 -11 6 5 9 -21 42 -28 35z m143 -424 c-8
-5 -30 -7 -49 -3 -21 3 -32 2 -28 -4 4 -6 -5 -15 -18 -21 -29 -14 -31 -10 -9
23 12 18 23 24 44 21 16 -2 34 0 42 5 7 5 17 4 23 -2 6 -6 5 -13 -5 -19z m90
-30 c0 -34 -132 -102 -289 -149 -112 -33 -159 -30 -179 12 -14 29 -23 32 -51
18 -22 -12 -51 3 -35 19 16 16 89 26 80 12 -4 -7 -3 -12 3 -12 5 0 13 5 16 10
3 6 28 10 55 10 73 0 185 25 285 64 105 41 115 42 115 16z m193 -130 c19 0 16
-5 -18 -40 -22 -21 -46 -39 -52 -40 -7 0 -12 -6 -10 -12 1 -7 -6 -12 -15 -12
-10 1 -18 -3 -18 -9 0 -6 -3 -7 -7 -4 -3 4 -11 3 -17 -2 -15 -11 -202 -69
-246 -75 -19 -3 -89 -8 -155 -11 -66 -3 -147 -9 -180 -14 -69 -10 -104 1 -84
25 18 22 133 51 254 63 61 6 119 13 130 15 11 2 40 7 65 11 24 4 51 11 60 16
8 5 60 29 115 54 72 33 108 44 129 40 16 -3 38 -5 49 -5z m47 -29 c0 -5 -7
-16 -15 -25 -17 -17 -20 -30 -5 -21 6 3 10 -1 10 -9 0 -9 4 -16 9 -16 11 0 1
-47 -13 -58 -6 -4 -36 -16 -66 -26 -30 -10 -83 -31 -117 -47 -35 -16 -95 -38
-135 -49 -89 -25 -394 -80 -443 -80 -42 0 -117 28 -112 43 1 5 44 10 97 11 64
1 118 9 165 23 39 12 113 29 165 38 163 30 350 96 403 143 24 21 34 7 12 -18
-10 -11 -13 -20 -8 -20 6 0 16 7 24 16 10 12 10 20 1 35 -15 23 -5 69 14 69 8
0 14 -4 14 -9z m-853 -204 c-7 -21 -36 -32 -49 -19 -11 11 -10 16 5 27 20 15
50 9 44 -8z m246 -19 c-2 -5 -12 -8 -22 -8 -9 0 -22 -5 -28 -11 -14 -14 -183
-23 -183 -10 0 13 24 19 110 26 41 3 75 7 76 8 6 6 51 1 47 -5z"/>
<path d="M2082 1643 c-21 -8 16 -43 45 -43 13 0 22 -4 19 -9 -3 -5 3 -11 14
-14 11 -3 20 -11 20 -18 0 -10 -3 -10 -12 -1 -7 7 -18 12 -26 12 -10 0 -10 -4
2 -22 14 -20 14 -24 -1 -40 -30 -33 0 -18 34 17 32 33 33 37 21 62 -9 19 -24
30 -50 36 -21 5 -38 13 -38 18 0 10 -8 10 -28 2z"/>
<path d="M2638 1643 c-27 -7 -21 -23 7 -23 14 0 25 4 25 9 0 13 -12 18 -32 14z"/>
<path d="M2020 1624 c0 -8 15 -21 34 -29 40 -17 54 -34 37 -44 -19 -12 -2 -38
22 -35 12 1 26 3 30 3 5 1 5 6 1 12 -4 8 -9 7 -16 -2 -7 -10 -8 -8 -3 8 6 24
-16 50 -72 83 -28 16 -33 17 -33 4z"/>
<path d="M1616 1622 c-3 -5 6 -20 19 -32 14 -13 25 -28 25 -34 0 -6 16 -28 36
-49 29 -31 38 -36 54 -27 10 6 30 11 43 12 21 2 23 5 13 20 -6 10 -12 14 -14
8 -2 -6 -10 -6 -22 0 -15 8 -17 6 -14 -13 2 -12 2 -16 -2 -9 -3 6 -10 12 -16
12 -5 0 -20 8 -33 18 -17 14 -21 22 -13 35 5 10 14 15 19 12 5 -4 6 -12 3 -18
-4 -7 -3 -8 1 -4 21 18 12 35 -17 33 -18 -1 -34 4 -41 14 -16 22 -35 32 -41
22z"/>
<path d="M2511 1588 c-1 -10 -4 -17 -8 -17 -38 6 -62 -24 -30 -37 7 -2 14 -14
14 -26 2 -26 16 -41 34 -36 12 2 12 15 3 68 -7 36 -12 57 -13 48z"/>
<path d="M1411 1572 c-14 -27 -12 -31 19 -37 16 -3 19 -1 12 8 -5 7 -12 21
-14 32 -4 19 -5 19 -17 -3z"/>
<path d="M1970 1556 c0 -20 6 -27 28 -32 15 -3 33 -7 40 -10 6 -2 12 1 12 6 0
6 -7 10 -15 10 -8 0 -15 5 -15 11 0 6 -7 8 -16 5 -8 -3 -13 -2 -11 2 3 4 -1
13 -9 20 -12 11 -14 9 -14 -12z"/>
<path d="M2760 1563 c0 -5 -15 -24 -33 -44 -28 -31 -37 -36 -74 -35 -24 1 -49
8 -55 15 -10 11 -10 12 0 7 18 -10 15 19 -4 38 -8 9 -25 16 -37 16 -17 -1 -15
-4 12 -16 19 -8 32 -17 28 -20 -3 -3 -14 0 -26 7 -29 19 -38 3 -14 -24 11 -12
19 -27 17 -32 -3 -7 16 -10 51 -8 30 1 55 -2 55 -8 0 -5 -21 -9 -47 -9 -52 0
-50 -14 4 -29 24 -7 33 -6 37 5 3 8 12 14 21 14 18 0 20 16 3 23 -7 3 -4 6 7
6 17 1 20 -6 22 -41 2 -30 0 -39 -8 -31 -6 6 -19 9 -29 6 -17 -4 -16 -9 9 -56
16 -30 40 -59 59 -70 l32 -19 -9 25 c-5 14 -7 28 -4 31 4 3 -1 6 -10 6 -9 0
-29 12 -44 26 l-28 27 33 -17 c41 -21 46 -18 31 20 -7 16 -13 31 -14 34 -1 3
-5 13 -10 23 -19 44 37 30 60 -15 8 -17 15 -39 15 -50 0 -10 6 -18 14 -18 7 0
16 -9 19 -20 3 -14 14 -20 31 -20 22 0 25 3 17 18 -5 9 -19 26 -31 37 -12 11
-26 28 -32 38 -7 15 -2 13 31 -7 46 -29 59 -33 41 -11 -8 10 -9 15 -2 15 6 0
9 7 6 15 -4 8 -12 15 -20 15 -8 0 -14 5 -14 10 0 6 -8 10 -17 10 -15 0 -15 1
2 13 27 20 1 32 -36 17 -18 -8 -34 -9 -42 -3 -6 5 -22 8 -34 7 -12 0 -20 3
-17 8 3 5 11 7 17 5 18 -6 46 30 40 52 -5 20 -23 30 -23 14z"/>
<path d="M2226 1528 c-9 -12 -16 -29 -15 -38 0 -13 1 -13 6 0 4 8 15 22 25 32
11 9 15 19 9 22 -5 4 -17 -4 -25 -16z"/>
<path d="M2670 1528 c-23 -25 -22 -29 8 -21 13 3 22 13 22 24 0 24 -5 24 -30
-3z"/>
<path d="M2280 1500 c0 -5 -6 -7 -13 -4 -8 3 -19 -1 -25 -8 -9 -11 -4 -14 21
-16 18 -2 34 -7 35 -12 2 -6 10 -10 17 -10 15 0 17 -38 2 -57 -6 -9 -4 -15 7
-19 9 -3 16 -16 16 -29 0 -15 15 -32 49 -55 37 -26 47 -38 43 -53 -3 -14 -1
-18 7 -13 6 4 9 11 6 16 -3 4 2 13 10 20 16 14 21 90 6 90 -5 0 -8 -11 -5 -25
3 -19 0 -25 -14 -25 -25 0 -58 35 -42 45 8 5 6 14 -5 31 -8 13 -12 24 -8 25 5
0 -3 4 -15 10 -13 5 -22 15 -20 21 5 14 -15 38 -30 38 -5 0 -12 9 -15 20 -5
20 -27 28 -27 10z"/>
<path d="M1595 1470 c-6 -9 -4 -11 5 -5 9 5 11 4 6 -3 -5 -9 -13 -9 -27 -1
-25 13 -36 5 -20 -15 21 -25 5 -52 -27 -50 -19 1 -29 -3 -29 -13 0 -10 10 -13
36 -11 31 3 36 0 39 -21 2 -13 -2 -28 -10 -32 -7 -5 -8 -9 -2 -9 6 0 10 -14 9
-30 -1 -24 3 -32 22 -36 12 -4 23 -10 23 -15 0 -5 6 -9 14 -9 8 0 17 -7 20
-16 4 -12 1 -14 -13 -9 -11 3 -22 1 -26 -5 -4 -6 6 -10 24 -10 33 0 37 9 21
40 -9 16 -6 21 14 26 17 4 22 11 19 25 -4 13 0 19 11 19 9 0 16 4 16 9 0 5 -6
9 -12 8 -34 -1 -48 5 -58 24 -8 14 -8 24 -1 33 16 19 4 25 -29 16 -32 -9 -40
-5 -40 20 0 34 27 44 70 27 21 -8 41 -12 44 -9 11 10 6 22 -6 20 -8 -2 -13 6
-12 19 1 13 -3 20 -7 17 -5 -3 -7 -9 -4 -14 3 -4 -2 -10 -10 -14 -8 -3 -15 0
-15 6 0 6 -3 8 -7 5 -3 -4 -11 1 -18 10 -9 13 -14 13 -20 3z m35 -138 c0 -9 9
-23 20 -30 27 -16 25 -41 -2 -51 -35 -13 -53 5 -55 55 -2 38 1 44 17 44 12 0
20 -7 20 -18z"/>
<path d="M2080 1440 c0 -10 9 -24 19 -30 25 -13 41 -13 41 1 0 5 -5 7 -11 3
-7 -4 -10 -1 -7 7 4 13 -18 38 -34 39 -5 0 -8 -9 -8 -20z"/>
<path d="M2502 1453 l-23 -4 23 -17 c64 -47 98 -48 75 -2 -13 25 -33 31 -75
23z"/>
<path d="M2177 1444 c-4 -4 -2 -13 4 -21 9 -10 8 -13 -4 -13 -8 0 -18 6 -20
13 -3 7 -6 5 -6 -6 -1 -9 10 -23 24 -29 27 -12 32 -24 13 -31 -8 -3 -6 -6 5
-6 9 -1 17 6 17 14 0 8 5 14 11 13 6 -2 14 3 17 11 3 10 0 12 -12 8 -18 -7
-21 4 -5 20 6 6 18 9 25 6 8 -3 14 1 14 11 0 19 -45 23 -56 5 -5 -8 -8 -8 -13
0 -4 6 -10 8 -14 5z"/>
<path d="M2370 1430 c0 -11 48 -25 57 -16 9 8 3 12 -29 20 -17 4 -28 2 -28 -4z"/>
<path d="M2459 1423 c-1 -10 -1 -24 0 -30 1 -7 -3 -13 -9 -13 -5 0 -10 -4 -10
-10 0 -5 7 -10 15 -10 8 0 15 5 15 12 0 32 19 -12 24 -55 4 -37 12 -54 36 -77
17 -16 28 -34 25 -40 -4 -7 2 -14 14 -17 12 -3 21 -13 21 -24 0 -11 5 -19 11
-19 5 0 8 4 5 8 -3 5 7 8 22 6 40 -3 40 -4 5 -19 -41 -18 -41 -29 -2 -65 29
-26 32 -50 8 -50 -6 0 -7 5 -3 11 4 7 0 9 -14 5 -15 -5 -21 -1 -27 16 -4 13
-6 30 -5 38 4 28 -12 2 -20 -33 -6 -30 -5 -36 11 -40 11 -3 19 -14 19 -24 0
-29 11 -35 32 -16 17 15 18 15 18 0 0 -10 6 -17 14 -17 8 0 21 -3 30 -6 12 -4
16 0 16 15 0 12 6 21 13 21 6 1 -3 7 -21 15 -33 15 -37 39 -4 28 9 -3 -3 13
-28 36 -32 29 -39 40 -24 36 33 -9 40 23 12 52 -13 14 -22 26 -20 29 7 13 0
17 -8 4 -8 -13 -10 -13 -10 2 0 9 -5 20 -11 24 -8 4 -9 -1 -4 -17 l7 -24 -17
23 c-9 12 -15 30 -13 40 3 15 6 14 23 -5 11 -13 25 -23 33 -23 7 0 15 -6 18
-14 3 -8 12 -12 20 -9 12 4 10 8 -7 17 -32 16 -33 31 -5 44 20 9 27 8 37 -5
17 -20 22 -53 8 -53 -8 0 -7 -6 2 -16 11 -14 10 -18 -5 -30 -11 -7 -16 -20
-13 -29 9 -21 24 -19 32 6 5 16 9 18 21 8 8 -6 17 -10 19 -7 9 8 -16 78 -28
78 -7 0 -4 7 6 14 16 13 16 15 -11 44 -16 17 -35 32 -43 34 -8 2 -17 8 -21 13
-4 6 -8 2 -8 -7 0 -10 5 -18 11 -18 5 0 7 -5 4 -10 -4 -6 -11 -8 -16 -5 -5 4
-9 1 -9 -5 0 -8 -16 -10 -46 -7 -37 4 -44 2 -40 -9 3 -9 1 -12 -4 -9 -6 3 -10
13 -10 21 0 8 -4 13 -9 10 -4 -3 -17 4 -27 16 -19 21 -19 21 6 12 33 -11 81
-7 94 7 8 8 0 10 -29 7 -31 -2 -39 0 -38 12 2 9 -10 23 -25 32 -25 16 -26 17
-5 18 32 0 75 -19 68 -30 -3 -5 1 -10 9 -10 10 0 16 9 16 25 0 16 -4 23 -13
19 -7 -2 -30 2 -50 11 -21 9 -43 13 -49 9 -6 -4 -9 -3 -6 2 3 5 -3 17 -14 27
-17 16 -18 16 -19 0z"/>
<path d="M2627 1380 c3 -11 10 -20 15 -20 5 0 6 -4 3 -10 -3 -6 1 -7 9 -4 22
9 20 19 -8 37 -23 15 -24 15 -19 -3z"/>
<path d="M2084 1382 c9 -14 58 -22 53 -8 -2 6 -16 12 -31 14 -16 2 -26 -1 -22
-6z"/>
<path d="M2227 1364 c-9 -9 4 -35 14 -28 5 3 9 1 9 -4 0 -6 12 -13 27 -16 28
-8 43 5 43 37 0 16 -2 16 -30 2 -27 -14 -30 -14 -30 0 0 15 -21 21 -33 9z"/>
<path d="M2496 1218 c4 -25 2 -38 -5 -38 -6 0 0 -18 15 -39 18 -28 24 -46 19
-62 l-8 -23 -18 22 c-21 27 -29 29 -40 10 -12 -19 -11 -36 1 -18 9 13 13 11
30 -10 20 -26 35 -69 26 -77 -2 -3 -11 8 -20 24 -8 15 -15 23 -16 16 0 -7 -7
-10 -17 -6 -16 6 -16 5 0 -17 19 -28 22 -60 6 -60 -6 0 -8 7 -5 16 3 8 2 12
-3 9 -5 -3 -12 -1 -16 5 -3 5 -11 10 -17 10 -6 0 -3 -8 6 -19 14 -15 15 -23 5
-45 -7 -14 -16 -26 -21 -26 -17 0 -113 -86 -112 -100 1 -28 -18 -70 -29 -63
-6 3 -7 1 -3 -5 4 -7 0 -22 -8 -34 -9 -12 -16 -33 -16 -45 0 -13 -5 -23 -10
-23 -6 0 -18 -17 -27 -39 -19 -44 -43 -63 -64 -50 -11 7 -10 9 5 9 12 0 16 5
13 14 -4 9 1 17 11 19 12 3 9 5 -7 6 -16 1 -22 -3 -18 -13 3 -8 -1 -17 -9 -20
-8 -3 -14 -9 -14 -15 0 -14 41 -21 62 -10 20 11 80 123 71 133 -4 3 -2 6 4 6
6 0 25 34 43 75 33 75 85 136 128 149 11 4 32 25 48 47 19 28 33 39 46 36 15
-4 18 1 18 34 0 21 -4 39 -9 39 -5 0 -8 19 -8 43 0 44 -13 105 -32 147 -9 22
-10 21 -5 -12z"/>
<path d="M1224 1219 c-3 -6 -11 -8 -18 -6 -6 2 -20 -5 -31 -15 -16 -16 -17
-18 -2 -13 20 8 23 -5 5 -23 -16 -16 -2 -28 15 -14 8 7 18 8 22 4 5 -4 5 -1 0
7 -10 18 15 33 32 19 7 -6 13 -19 13 -30 0 -15 -5 -18 -20 -13 -11 3 -20 2
-20 -4 0 -5 -10 -11 -22 -13 -27 -4 -77 -73 -78 -107 0 -20 -2 -22 -15 -11
-13 11 -13 15 -3 22 9 6 5 7 -9 3 -17 -5 -22 -3 -17 8 3 8 -1 21 -8 28 -7 8
-13 20 -14 27 -3 34 -4 36 -15 25 -8 -8 -8 -17 0 -31 6 -11 11 -32 11 -46 0
-14 5 -26 12 -26 6 0 19 -7 29 -16 17 -15 20 -15 45 5 15 12 24 21 20 21 -4 0
2 11 13 26 11 14 23 24 26 24 4 -1 12 6 19 16 9 11 18 14 27 8 18 -11 39 -14
40 -6 1 9 6 39 13 73 3 18 -1 32 -12 41 -24 21 -50 29 -58 17z"/>
<path d="M2159 1228 c-14 -49 9 -75 39 -44 15 15 15 16 -6 16 -15 0 -20 4 -16
15 4 8 1 15 -5 15 -6 0 -11 -1 -12 -2z"/>
<path d="M2227 809 c-23 -22 -33 -36 -22 -31 22 11 83 72 71 72 -4 0 -26 -18
-49 -41z"/>
<path d="M2112 761 c-71 -52 -89 -70 -75 -74 13 -4 12 -5 -7 -6 -14 -1 -36 -8
-50 -16 l-25 -14 25 1 c14 0 42 7 62 16 34 13 36 16 20 28 -16 12 -15 13 4 8
12 -3 25 0 30 7 5 9 2 11 -9 6 -28 -11 -19 -2 37 37 47 32 97 77 85 76 -2 -1
-46 -32 -97 -69z"/>
<path d="M2250 781 c-19 -11 -52 -26 -72 -35 -45 -19 -77 -76 -49 -88 28 -12
36 -9 15 7 -18 13 -18 14 6 9 25 -5 25 -5 5 12 -18 15 -18 16 -1 10 14 -5 17
-2 12 9 -3 8 -1 15 5 15 6 0 17 7 25 15 10 10 24 13 41 9 20 -5 24 -4 18 6 -6
10 -4 12 7 7 11 -4 17 2 21 19 2 13 4 24 3 24 0 -1 -17 -9 -36 -19z"/>
<path d="M2067 773 c-9 -2 -15 -8 -12 -13 3 -4 -27 -27 -67 -51 -39 -24 -65
-45 -58 -47 7 -3 15 0 19 5 3 5 22 19 42 31 44 27 115 82 103 81 -5 -1 -17 -3
-27 -6z"/>
<path d="M663 753 c9 -2 14 -9 11 -15 -4 -7 -2 -8 4 -4 7 4 12 2 12 -3 0 -6 8
-11 18 -11 14 0 15 -2 2 -10 -13 -8 -12 -10 3 -10 9 0 17 4 17 10 0 17 -43 50
-64 49 -17 -1 -18 -2 -3 -6z"/>
<path d="M735 740 c4 -6 51 -9 113 -9 87 1 99 3 62 10 -66 11 -182 11 -175 -1z"/>
<path d="M995 735 c17 -7 53 -16 80 -19 42 -5 39 -3 -25 14 -87 22 -96 23 -55
5z"/>
<path d="M893 703 c32 -2 81 -2 110 0 29 2 3 3 -58 3 -60 0 -84 -1 -52 -3z"/>
<path d="M1855 674 c-38 -19 -79 -34 -90 -34 -15 0 -16 -3 -7 -9 14 -8 8 -9
-85 -11 -23 0 -45 -4 -48 -10 -3 -5 -13 -6 -23 -3 -9 3 -14 3 -10 -2 4 -4 18
-8 30 -9 20 -1 23 -6 21 -39 l-2 -37 47 -2 47 -1 -50 -7 c-43 -7 -40 -7 20 -4
53 2 65 0 52 -8 -11 -5 -44 -11 -75 -13 -53 -2 -57 -4 -60 -27 -3 -25 -3 -26
45 -17 62 12 111 28 118 39 3 5 -9 3 -27 -4 -18 -8 -53 -16 -78 -19 l-45 -6
50 15 c84 26 107 36 95 44 -9 6 -9 9 1 13 8 3 -2 3 -21 1 l-35 -5 30 14 c30
14 30 14 7 21 -13 4 -26 5 -29 2 -4 -3 2 -6 13 -7 39 -1 -19 -18 -61 -17 l-40
1 40 7 40 7 -35 3 -35 3 35 7 c29 6 31 8 10 10 l-25 2 25 8 25 8 -25 2 c-21 2
-20 3 10 10 19 5 53 11 75 13 22 3 49 8 60 13 18 7 18 6 6 -9 -12 -15 -11 -17
5 -17 11 0 30 -3 44 -5 22 -5 21 -3 -5 9 l-30 15 30 1 c17 0 37 4 44 9 12 8 9
12 -14 23 -22 10 -29 10 -33 0 -2 -6 -17 -12 -33 -12 -41 0 -30 13 28 35 51
19 77 35 53 34 -8 0 -46 -16 -85 -35z"/>
<path d="M836 682 c-10 -16 12 -35 30 -27 18 8 18 8 -1 13 -20 5 -20 5 0 13
19 7 19 8 -2 8 -12 1 -24 -3 -27 -7z"/>
<path d="M990 680 c-44 -7 -44 -7 -10 -10 38 -2 57 -1 170 10 l75 7 -95 0
c-52 0 -115 -3 -140 -7z"/>
<path d="M1747 666 c-59 -21 -92 -36 -75 -36 16 0 144 43 153 51 14 13 -1 10
-78 -15z"/>
<path d="M2194 663 c-4 -16 -7 -31 -6 -35 1 -5 -3 -8 -9 -8 -5 0 -8 -4 -5 -9
4 -5 0 -12 -6 -14 -8 -3 -6 -6 5 -6 9 -1 17 4 17 9 0 6 12 15 28 21 l27 11
-24 12 c-20 11 -21 14 -7 19 10 4 14 11 11 17 -11 18 -23 11 -31 -17z"/>
<path d="M1590 661 c-14 -4 -81 -16 -150 -27 -115 -17 -121 -19 -80 -26 25 -3
56 -6 70 -6 l25 0 -25 7 c-20 6 -13 9 35 15 63 8 165 33 165 41 0 6 -8 5 -40
-4z"/>
<path d="M1605 639 c-27 -10 -41 -18 -30 -18 11 0 38 8 60 18 50 24 36 24 -30
0z"/>
<path d="M2057 639 c-9 -6 -26 -7 -37 -4 -14 5 -23 -1 -35 -24 -14 -29 -14
-31 2 -31 10 0 25 5 33 10 12 8 12 10 -5 10 -17 0 -17 2 -5 10 21 13 43 12 34
-1 -5 -8 -2 -9 11 -1 10 5 20 17 21 26 1 9 2 16 1 16 -1 0 -10 -5 -20 -11z"/>
<path d="M2105 630 c3 -13 -2 -20 -12 -20 -9 0 -14 -3 -10 -6 9 -9 48 6 42 17
-4 5 -1 9 5 9 6 0 8 5 5 10 -11 18 -34 11 -30 -10z"/>
<path d="M1250 600 c19 -6 21 -8 6 -9 -11 -1 -16 -4 -12 -8 10 -10 36 -12 36
-3 0 4 17 7 38 5 20 -1 27 0 15 2 -13 2 -23 9 -23 14 0 5 -19 9 -42 8 -37 -1
-39 -2 -18 -9z"/>
<path d="M1140 580 c-41 -23 -32 -26 13 -6 18 8 41 17 52 19 16 4 15 5 -5 5
-14 1 -41 -7 -60 -18z"/>
<path d="M1490 593 c-14 -3 -30 -9 -37 -15 -7 -5 -22 -7 -35 -3 -18 5 -20 4
-8 -4 12 -9 10 -11 -10 -12 -15 -1 -19 -3 -8 -6 9 -2 33 3 54 12 25 10 40 12
42 5 2 -5 27 -9 55 -8 l52 1 -45 6 c-37 5 -41 8 -23 14 12 4 34 5 50 2 21 -5
24 -4 13 4 -15 11 -54 12 -100 4z"/>
<path d="M1836 575 c-9 -24 -8 -25 17 -25 18 0 19 2 7 11 -12 8 -9 10 13 6 15
-2 27 0 27 4 0 5 -6 9 -14 9 -8 0 -21 3 -29 6 -8 3 -17 -2 -21 -11z"/>
<path d="M2075 580 c-3 -5 -3 -10 1 -10 4 0 -1 -7 -12 -15 -24 -18 -7 -19 26
0 15 9 19 14 10 15 -13 0 -13 1 0 10 13 8 13 10 -2 10 -9 0 -20 -4 -23 -10z"/>
<path d="M951 571 c-12 -8 -9 -11 12 -17 16 -3 31 -4 34 0 4 3 -5 7 -18 8 -13
1 10 4 51 8 l75 6 -70 2 c-38 1 -77 -2 -84 -7z"/>
<path d="M1910 555 c-19 -7 -47 -14 -61 -14 -15 -1 -30 -8 -33 -17 -9 -25 -3
-26 50 -13 38 10 44 14 28 20 -18 7 -18 8 2 8 11 1 29 8 40 16 23 17 19 17
-26 0z"/>
<path d="M1155 540 c-20 -9 -20 -9 0 -10 20 -1 20 -1 0 -9 -12 -5 9 -7 50 -4
94 6 103 11 25 13 -52 2 -59 4 -35 10 27 7 28 8 5 8 -14 0 -34 -3 -45 -8z"/>
<path d="M1470 536 c0 -13 10 -16 53 -14 l52 1 -50 7 -50 7 47 1 c26 1 59 -3
75 -9 23 -8 26 -8 15 2 -6 7 -41 15 -77 17 -55 4 -65 2 -65 -12z"/>
<path d="M1975 543 c-26 -7 -46 -23 -40 -33 3 -5 -1 -11 -7 -13 -9 -4 -8 -5 2
-6 8 0 24 4 35 9 18 8 18 9 -5 10 -22 0 -20 3 15 19 39 19 39 23 0 14z"/>
<path d="M1020 528 c0 -10 26 -9 60 2 21 7 17 8 -17 7 -24 0 -43 -4 -43 -9z"/>
<path d="M2055 531 c-20 -8 -20 -8 0 -13 18 -5 18 -6 -2 -7 -13 0 -23 -5 -23
-11 0 -20 44 0 54 25 6 17 1 18 -29 6z"/>
<path d="M818 523 c6 -2 10 -9 6 -14 -8 -13 41 -29 84 -28 l37 2 -35 7 -35 7
30 3 c25 1 20 4 -25 15 -55 14 -87 18 -62 8z"/>
<path d="M970 510 c8 -5 34 -10 57 -10 23 0 43 -4 45 -9 2 -4 12 -5 23 -1 15
6 8 9 -30 14 -27 4 -63 9 -80 11 -22 4 -26 2 -15 -5z"/>
<path d="M1355 510 l60 -7 -60 -3 c-50 -3 -54 -4 -20 -7 21 -3 55 -1 75 2 30
6 32 9 15 15 -11 5 -45 8 -75 8 l-55 -1 60 -7z"/>
<path d="M1460 502 c0 -4 19 -6 43 -4 70 5 76 10 15 11 -32 0 -58 -2 -58 -7z"/>
<path d="M2133 499 c19 -11 23 -29 6 -29 -5 0 -7 5 -4 10 3 6 0 10 -7 10 -8 0
-22 -15 -32 -32 -19 -33 -114 -128 -128 -128 -5 0 -8 -4 -8 -10 0 -5 7 -10 15
-10 8 0 15 4 15 9 0 5 12 14 28 20 49 21 196 176 150 158 -10 -3 -18 -2 -18 3
0 6 -8 10 -17 10 -17 -1 -17 -1 0 -11z"/>
<path d="M1520 484 l-65 -14 70 4 c71 4 65 0 -35 -23 l-45 -10 45 5 c25 3 59
8 75 11 17 3 26 2 22 -3 -4 -4 -38 -14 -75 -20 -54 -10 -60 -12 -27 -12 60 -1
110 19 110 43 -1 11 4 23 10 27 13 10 -5 8 -85 -8z"/>
<path d="M833 475 c10 -12 107 -23 107 -13 0 4 -18 8 -39 8 -22 0 -48 3 -58 7
-10 3 -15 2 -10 -2z"/>
<path d="M1030 469 c0 -4 20 -9 44 -10 26 -3 42 0 40 6 -5 11 -84 14 -84 4z"/>
<path d="M1137 470 c6 -7 42 -14 80 -16 l68 -3 -64 9 c-35 5 -71 12 -80 15
-12 5 -13 3 -4 -5z"/>
<path d="M1318 473 c17 -2 47 -2 65 0 17 2 3 4 -33 4 -36 0 -50 -2 -32 -4z"/>
<path d="M1951 465 c-35 -12 -64 -45 -39 -45 21 1 75 28 58 30 -10 0 -6 6 10
15 30 17 18 17 -29 0z"/>
<path d="M1803 456 c3 -8 1 -17 -6 -20 -7 -3 6 -3 28 0 30 4 36 3 25 -5 -8 -6
-25 -11 -37 -11 -13 0 -23 -4 -23 -10 0 -13 4 -13 46 5 20 8 33 19 30 24 -4 5
0 12 6 14 7 3 -3 4 -22 1 -27 -3 -31 -2 -15 5 18 9 17 10 -9 10 -20 1 -27 -3
-23 -13z"/>
<path d="M1325 448 c-44 -5 -105 -7 -135 -4 -43 4 -51 3 -36 -6 18 -10 37 -11
151 -9 69 2 126 12 120 22 -4 5 -9 8 -13 8 -4 -1 -43 -6 -87 -11z"/>
<path d="M1675 430 c-64 -17 -66 -18 -20 -13 28 3 64 11 80 18 41 18 23 16
-60 -5z"/>
<path d="M1004 415 c20 -15 137 -23 122 -8 -4 4 -24 6 -44 4 -21 -1 -51 3 -67
8 -28 10 -29 10 -11 -4z"/>
<path d="M1579 425 c-10 -9 -233 -36 -256 -30 -14 3 -23 1 -23 -6 0 -9 19 -10
68 -6 127 13 204 25 215 36 6 6 9 11 6 11 -3 0 -8 -2 -10 -5z"/>
<path d="M885 410 c28 -12 85 -12 85 0 0 6 -24 10 -52 9 -39 0 -48 -3 -33 -9z"/>
<path d="M1328 413 c17 -2 47 -2 65 0 17 2 3 4 -33 4 -36 0 -50 -2 -32 -4z"/>
<path d="M1919 413 c-24 -4 -50 -43 -29 -43 21 0 61 21 56 29 -4 5 0 12 6 14
15 6 5 6 -33 0z"/>
<path d="M1635 400 l-40 -7 35 -1 c19 0 46 4 60 8 32 10 2 10 -55 0z"/>
<path d="M1739 400 c-9 -5 -45 -13 -80 -18 -49 -7 -55 -10 -26 -11 44 -1 125
17 133 30 7 12 -7 11 -27 -1z"/>
<path d="M1821 396 c-19 -7 -41 -23 -50 -35 -15 -23 -14 -23 9 -16 46 14 70
24 70 30 0 2 -12 0 -26 -5 -45 -18 -50 -9 -6 10 23 11 42 22 42 25 0 3 -1 5
-2 4 -2 0 -18 -6 -37 -13z"/>
<path d="M1025 385 c35 -16 84 -19 105 -5 11 7 2 9 -30 7 -25 -1 -58 1 -75 5
l-30 7 30 -14z"/>
<path d="M1513 391 c-28 -4 -55 -10 -60 -14 -10 -11 96 1 116 13 9 5 12 9 6 8
-5 0 -33 -4 -62 -7z"/>
<path d="M935 380 c39 -7 39 -7 7 -9 -18 0 -31 -5 -28 -9 3 -5 20 -7 38 -6 29
3 30 3 8 -5 -24 -7 -23 -8 14 -19 22 -6 41 -10 42 -9 2 1 -6 17 -18 35 -18 28
-25 32 -61 31 l-42 -2 40 -7z"/>
<path d="M1177 379 c24 -10 91 -11 96 -1 3 4 -22 7 -55 7 -34 1 -51 -2 -41 -6z"/>
<path d="M1032 359 c7 -5 36 -8 63 -8 60 1 50 6 -23 12 -32 2 -48 1 -40 -4z"/>
<path d="M1169 357 c4 -5 32 -7 62 -5 l54 3 -62 5 c-34 3 -58 1 -54 -3z"/>
<path d="M1653 363 c-37 -2 -63 -9 -63 -15 0 -11 90 -5 126 9 13 5 15 3 9 -7
-5 -9 -4 -11 4 -6 11 7 6 28 -7 24 -4 -1 -35 -3 -69 -5z"/>
<path d="M1350 340 c-52 -6 -53 -7 -15 -10 50 -3 67 -1 80 11 6 6 6 8 0 7 -6
-1 -35 -4 -65 -8z"/>
<path d="M1173 329 c7 -4 37 -9 67 -11 30 -3 46 -3 36 -1 -12 3 -15 8 -8 12 6
4 -15 7 -48 6 -32 0 -53 -3 -47 -6z"/>
<path d="M1475 330 l-60 -7 60 -1 c33 -1 67 3 75 8 17 11 25 11 -75 0z"/>
<path d="M1304 312 c5 -8 -2 -12 -21 -13 -15 0 -23 -3 -17 -5 5 -2 35 0 65 5
30 5 42 9 27 10 -14 0 -34 4 -44 8 -12 4 -15 3 -10 -5z"/>
<path d="M1575 300 c-7 -12 24 -12 80 -1 40 9 40 9 -17 10 -31 0 -60 -3 -63
-9z"/>
<path d="M1530 280 c-8 -5 -24 -7 -35 -4 -11 2 -33 0 -50 -6 -25 -8 -20 -9 33
-7 34 2 68 9 74 15 14 14 -1 16 -22 2z"/>
</g>
</svg>
