<?xml version="1.0" encoding="UTF-8"?>
<svg version="1.1" xmlns="http://www.w3.org/2000/svg" width="1000" height="250">
<path d="M0 0 C1.32 0 2.64 0 4 0 C15.35395289 23.6844211 15.35395289 23.6844211 20.36132812 34.41772461 C22.2397326 38.43214036 24.20266198 42.38933511 26.25024414 46.32055664 C27 48 27 48 27 50 C27.60811523 50.03665771 28.21623047 50.07331543 28.84277344 50.11108398 C39.71297909 50.88711614 50.46672057 52.52620588 61.25 54.0625 C63.26688341 54.34731467 65.28381018 54.63182241 67.30078125 54.91601562 C72.20102811 55.60713869 77.10066901 56.30241525 82 57 C82 61 82 61 79.81323242 63.43237305 C78.88486572 64.27968994 77.95649902 65.12700684 77 66 C75.32846894 67.693065 73.65792833 69.3871083 71.98828125 71.08203125 C70.579322 72.50477487 69.17034802 73.92750427 67.76049805 75.34936523 C66.78803116 76.33199785 65.81735068 77.31640133 64.84838867 78.30249023 C63.44137874 79.7336325 62.02743802 81.15795058 60.61328125 82.58203125 C59.77579346 83.42999268 58.93830566 84.2779541 58.07543945 85.15161133 C56 87 56 87 54 87 C54 87.66 54 88.32 54 89 C53.34 89 52.68 89 52 89 C52 89.66 52 90.32 52 91 C51.34 91 50.68 91 50 91 C50 91.66 50 92.32 50 93 C49.34 93 48.68 93 48 93 C48 93.66 48 94.32 48 95 C47.34 95 46.68 95 46 95 C43.7274741 101.81757771 45.51046687 108.76613059 46.78515625 115.640625 C47.15433656 117.70051372 47.52347598 119.76040977 47.89257812 121.8203125 C48.47876308 125.04889197 49.06743628 128.2770047 49.6574707 131.50488281 C50.22699232 134.63239314 50.7876724 137.76139522 51.34765625 140.890625 C51.52780777 141.85937561 51.70795929 142.82812622 51.89356995 143.82623291 C52.05381149 144.72436707 52.21405304 145.62250122 52.37915039 146.54785156 C52.52349014 147.33726135 52.6678299 148.12667114 52.81654358 148.94000244 C53 151 53 151 52 154 C47.28431279 153.43195355 43.70157095 151.31139182 39.6875 148.9375 C33.45215621 145.33493715 27.14515033 141.9864892 20.6730957 138.83007812 C15.77724633 136.4323096 11.07581425 133.79103592 6.4296875 130.93359375 C3.0302983 129.62739758 1.51714928 129.94814227 -2 131 C-5.55076886 132.6940459 -8.95644633 134.61791247 -12.375 136.5625 C-14.33857394 137.65852801 -16.30342895 138.75226396 -18.26953125 139.84375 C-19.23713379 140.38128906 -20.20473633 140.91882813 -21.20166016 141.47265625 C-25.73306986 143.94591564 -30.34731049 146.24002436 -34.98779297 148.50024414 C-37.66651543 149.80976902 -40.19416856 151.12859781 -42.68359375 152.77734375 C-45 154 -45 154 -47.14477539 153.57641602 C-47.75699951 153.38619873 -48.36922363 153.19598145 -49 153 C-48.18248096 147.95030099 -47.36459367 142.90066181 -46.54638672 137.85107422 C-46.26894537 136.13852492 -45.99159914 134.42596021 -45.71435547 132.71337891 C-45.44504887 131.04990026 -45.17558012 129.38644786 -44.90594482 127.72302246 C-44.64111769 126.08842641 -44.37683298 124.45374237 -44.11309814 122.81896973 C-43.23354159 117.38178697 -42.30790433 111.95424686 -41.32763672 106.53417969 C-40.7947932 102.41278196 -40.67970274 98.96089179 -42 95 C-42.66 95 -43.32 95 -44 95 C-44 94.34 -44 93.68 -44 93 C-44.66 93 -45.32 93 -46 93 C-46 92.34 -46 91.68 -46 91 C-46.66 91 -47.32 91 -48 91 C-48 90.34 -48 89.68 -48 89 C-48.66 89 -49.32 89 -50 89 C-50 88.34 -50 87.68 -50 87 C-50.5676709 86.75902588 -51.1353418 86.51805176 -51.72021484 86.26977539 C-54.45643596 84.74577817 -56.28631807 82.92221708 -58.4765625 80.68359375 C-59.72953125 79.41418945 -59.72953125 79.41418945 -61.0078125 78.11914062 C-61.87148438 77.23419922 -62.73515625 76.34925781 -63.625 75.4375 C-65.34414185 73.68402618 -67.06539013 71.93261425 -68.7890625 70.18359375 C-69.54912598 69.40556396 -70.30918945 68.62753418 -71.09228516 67.82592773 C-72.87557625 65.93913872 -72.87557625 65.93913872 -75 65 C-75 64.34 -75 63.68 -75 63 C-76.65 62.34 -78.3 61.68 -80 61 C-79.28936768 59.06854248 -79.28936768 59.06854248 -78 57 C-75.93963623 56.25323486 -75.93963623 56.25323486 -73.37011719 55.90332031 C-72.40861755 55.76347717 -71.44711792 55.62363403 -70.45648193 55.47955322 C-69.41381165 55.34708191 -68.37114136 55.2146106 -67.296875 55.078125 C-65.6910556 54.85355621 -65.6910556 54.85355621 -64.05279541 54.62445068 C-60.62061749 54.1492741 -57.18557094 53.69991334 -53.75 53.25 C-51.44900086 52.93256502 -49.14821589 52.61357343 -46.84765625 52.29296875 C-44.64341782 51.99080806 -42.43899578 51.68998325 -40.234375 51.390625 C-39.19980164 51.25005676 -38.16522827 51.10948853 -37.0993042 50.96466064 C-32.36720144 50.34657051 -27.78504611 49.81901016 -23 50 C-22.72164307 49.12110107 -22.44328613 48.24220215 -22.15649414 47.33666992 C-21.10315944 44.29763141 -19.90043129 41.50285075 -18.49609375 38.61328125 C-18.00657227 37.60064209 -17.51705078 36.58800293 -17.01269531 35.54467773 C-16.23297363 33.94474976 -16.23297363 33.94474976 -15.4375 32.3125 C-14.35765145 30.08093306 -13.27822921 27.84915979 -12.19921875 25.6171875 C-11.66216309 24.50827148 -11.12510742 23.39935547 -10.57177734 22.25683594 C-8.27372228 17.49510023 -6.00862072 12.71803896 -3.75 7.9375 C-3.3677124 7.12901611 -2.9854248 6.32053223 -2.59155273 5.48754883 C-1.72710302 3.6586488 -0.86344693 1.82937367 0 0 Z " fill="#FDC403" transform="translate(498,48)"/>
<path d="M0 0 C0.99 0 1.98 0 3 0 C7.663768 9.21316567 12.21857315 18.46739094 16.58959961 27.82348633 C17.29978096 29.33743883 18.03160001 30.84137994 18.78173828 32.3359375 C20 35 20 35 21.16748047 38.5703125 C23.56539766 45.34917631 23.56539766 45.34917631 28.85452271 49.95367432 C34.4150197 51.77694815 40.20226221 52.22107603 46 52.75 C47.72075986 52.95240418 49.44083764 53.1606977 51.16015625 53.375 C56.86677127 54.06850278 62.58164891 54.67069933 68.30371094 55.22192383 C70.41289331 55.42861999 72.51860833 55.65744868 74.625 55.890625 C75.81351563 56.00954102 77.00203125 56.12845703 78.2265625 56.25097656 C81 57 81 57 82.4609375 58.94433594 C83 61 83 61 82 63 C81.2575 63.433125 80.515 63.86625 79.75 64.3125 C76.84034032 65.95106053 76.84034032 65.95106053 74.3125 68.6875 C73.549375 69.450625 72.78625 70.21375 72 71 C71.34 71 70.68 71 70 71 C69.63648438 71.87011719 69.63648438 71.87011719 69.265625 72.7578125 C67.76302415 75.41982759 66.07797905 76.89390525 63.75 78.875 C62.43515625 80.06029297 62.43515625 80.06029297 61.09375 81.26953125 C59.46591959 82.72734621 57.82308011 84.14418601 56.12890625 85.52490234 C54.12740393 87.16028828 52.19037998 88.85529664 50.25 90.5625 C49.60514648 91.06056152 48.96029297 91.55862305 48.29589844 92.07177734 C46.19251828 93.98535715 45.09136537 95.35857559 44 98 C43.93158247 102.70489046 44.67327792 107.16445655 45.56762695 111.76199341 C46.00008884 114.00045984 46.38305425 116.24219052 46.75195312 118.49194336 C47.6367259 123.85240306 48.59165791 129.19973368 49.54638672 134.5480957 C49.95364854 136.8374584 50.35587994 139.12766544 50.7578125 141.41796875 C50.88278107 142.10755173 51.00774963 142.7971347 51.13650513 143.50761414 C51.75683289 147.04780222 52.13774759 150.40513451 52 154 C48.30786383 153.40871658 45.44483771 152.38054579 42.1484375 150.62890625 C41.22337402 150.14139893 40.29831055 149.6538916 39.34521484 149.15161133 C38.36504395 148.62720459 37.38487305 148.10279785 36.375 147.5625 C35.36260254 147.02842529 34.35020508 146.49435059 33.30712891 145.9440918 C28.339823 143.32127031 23.38684114 140.67215176 18.4375 138.015625 C17.5810791 137.55857178 16.7246582 137.10151855 15.84228516 136.63061523 C14.23450104 135.77167733 12.62982843 134.90688164 11.02880859 134.03540039 C5.78954736 131.08120358 5.78954736 131.08120358 0 130 C-2.43761844 131.04214869 -4.54442209 132.10628883 -6.8125 133.4375 C-8.15118157 134.18827394 -9.49106643 134.9369056 -10.83203125 135.68359375 C-11.51990723 136.07015137 -12.2077832 136.45670898 -12.91650391 136.85498047 C-16.22645488 138.67401844 -19.61040895 140.33552802 -23 142 C-27.11631081 144.02934527 -31.20460691 146.09135549 -35.23828125 148.28125 C-36.26405273 148.838125 -36.26405273 148.838125 -37.31054688 149.40625 C-38.61574259 150.11933254 -39.91799584 150.83783563 -41.21679688 151.5625 C-44.03793752 153.10526269 -45.72886523 154 -49 154 C-48.60641384 146.87651141 -47.54267291 139.90070723 -46.3359375 132.87890625 C-46.17925598 131.96636078 -46.02257446 131.05381531 -45.86114502 130.11361694 C-45.20051813 126.28857479 -44.53396307 122.46462295 -43.86035156 118.6418457 C-43.36597206 115.82620735 -42.8815974 113.00898822 -42.3984375 110.19140625 C-42.24329681 109.32786026 -42.08815613 108.46431427 -41.92831421 107.57460022 C-41.79132111 106.76953537 -41.654328 105.96447052 -41.51318359 105.13500977 C-41.32784561 104.07891258 -41.32784561 104.07891258 -41.13876343 103.0014801 C-40.92441522 99.90978885 -41.41221209 97.74470331 -43.33520508 95.30834961 C-44.16894653 94.48862671 -44.16894653 94.48862671 -45.01953125 93.65234375 C-45.62990234 93.04712891 -46.24027344 92.44191406 -46.86914062 91.81835938 C-47.51044922 91.19767578 -48.15175781 90.57699219 -48.8125 89.9375 C-49.44220703 89.31294922 -50.07191406 88.68839844 -50.72070312 88.04492188 C-53.21482061 85.59267834 -55.63222753 83.2715768 -58.44921875 81.19140625 C-58.96097656 80.79824219 -59.47273438 80.40507812 -60 80 C-60 79.34 -60 78.68 -60 78 C-60.804375 77.690625 -60.804375 77.690625 -61.625 77.375 C-64.91978009 75.46749574 -67.59363628 72.95180616 -70 70 C-70 69.34 -70 68.68 -70 68 C-70.8353125 67.62875 -70.8353125 67.62875 -71.6875 67.25 C-75.62640804 65.12086052 -78.55694029 63.32917913 -80 59 C-77.63643451 56.63643451 -76.7015013 56.59830623 -73.46191406 56.13037109 C-72.52043518 55.99037689 -71.5789563 55.85038269 -70.60894775 55.70614624 C-69.58815125 55.56335236 -68.56735474 55.42055847 -67.515625 55.2734375 C-65.94309967 55.04462387 -65.94309967 55.04462387 -64.33880615 54.81118774 C-62.11674005 54.48962888 -59.89408088 54.17214626 -57.67089844 53.85839844 C-54.27653691 53.37874986 -50.88431742 52.88578325 -47.4921875 52.390625 C-45.33344745 52.07993521 -43.17459656 51.77001441 -41.015625 51.4609375 C-39.49657562 51.24067398 -39.49657562 51.24067398 -37.94683838 51.01596069 C-33.25993591 50.35921651 -28.74734124 49.812473 -24 50 C-23.7313916 49.30430908 -23.4627832 48.60861816 -23.18603516 47.8918457 C-21.9081667 44.7760878 -20.48845484 41.76277144 -19.0234375 38.73046875 C-18.59342438 37.83920288 -18.59342438 37.83920288 -18.15472412 36.92993164 C-17.2299775 35.01489781 -16.30262468 33.10114117 -15.375 31.1875 C-14.74070325 29.87606733 -14.10642595 28.56462525 -13.47216797 27.25317383 C-9.05568914 18.1313891 -4.58359552 9.03907813 0 0 Z " fill="#FDC402" transform="translate(317,48)"/>
<path d="M0 0 C2.97190047 1.03694359 3.93590126 1.89586381 5.61230469 4.61938477 C6.12696289 5.71565186 6.64162109 6.81191895 7.171875 7.94140625 C7.45549393 8.53700348 7.73911285 9.13260071 8.03132629 9.74624634 C8.63601416 11.02061049 9.23495773 12.29771342 9.8286438 13.57723999 C10.75288284 15.56871171 11.69261154 17.55218658 12.63647461 19.53442383 C15.32857625 25.20509887 17.97047951 30.89611569 20.51953125 36.6328125 C20.87370117 37.41970459 21.22787109 38.20659668 21.59277344 39.01733398 C22.22010983 40.42125977 22.83253023 41.83198741 23.42675781 43.25024414 C24.68882457 46.08095408 25.45151433 47.72979577 28.28678894 49.1265564 C30.94028893 49.98077766 33.39827108 50.49242187 36.1574707 50.86962891 C37.15813065 51.00962311 38.15879059 51.14961731 39.18977356 51.29385376 C40.2576561 51.43664764 41.32553864 51.57944153 42.42578125 51.7265625 C43.52850876 51.87910492 44.63123627 52.03164734 45.76737976 52.18881226 C49.28162577 52.67354336 52.79701021 53.14938198 56.3125 53.625 C58.69864821 53.9525391 61.08471699 54.28065732 63.47070312 54.609375 C69.31289795 55.41296666 75.1560519 56.20926521 81 57 C81.33 58.32 81.66 59.64 82 61 C81.29399658 61.64396729 80.58799316 62.28793457 79.8605957 62.95141602 C77.16118138 65.41683272 74.4685911 67.88959638 71.77838135 70.36505127 C70.61104892 71.43823429 69.44242876 72.51001862 68.2723999 73.58026123 C64.78574567 76.77304404 61.33988305 80.00290645 57.93139648 83.27905273 C56.75740412 84.39552062 55.57117015 85.4992404 54.3737793 86.59057617 C47.36472096 92.69141842 47.36472096 92.69141842 43.34204102 100.76806641 C43.54416491 103.99010892 44.21660137 106.86574919 45 110 C45.27539897 111.53926946 45.53643685 113.08114807 45.78637695 114.62475586 C46.64636077 119.92893078 47.59950166 125.21369333 48.5625 130.5 C49.05757243 133.23096889 49.5509792 135.96220258 50.04026794 138.69421387 C50.34276569 140.38210847 50.64864969 142.06940074 50.95838928 143.75598145 C51.58584887 147.24710372 52 150.44060835 52 154 C47.12289614 153.40338341 43.41811404 151.27085007 39.1875 148.9375 C37.66884437 148.11556759 36.14929056 147.29529283 34.62890625 146.4765625 C33.85949707 146.06180664 33.09008789 145.64705078 32.29736328 145.21972656 C28.11714985 143.00034864 23.87110662 140.91433263 19.62231445 138.83007812 C14.74991853 136.42467951 10.06039735 133.78155428 5.4296875 130.93359375 C1.61031817 129.46602258 -1.17329232 130.19917631 -4.87060547 131.82006836 C-7.06903952 132.91293306 -9.22201208 134.07013712 -11.375 135.25 C-12.18066406 135.6816748 -12.98632812 136.11334961 -13.81640625 136.55810547 C-18.7200823 139.19262583 -23.5970954 141.87567934 -28.4765625 144.5546875 C-30.10198975 145.44365723 -30.10198975 145.44365723 -31.76025391 146.35058594 C-33.89886912 147.52190887 -36.03405066 148.69952575 -38.16552734 149.88378906 C-39.14215332 150.4197168 -40.1187793 150.95564453 -41.125 151.5078125 C-42.42824219 152.22928467 -42.42824219 152.22928467 -43.7578125 152.96533203 C-46 154 -46 154 -49 154 C-48.42318463 142.57652031 -46.503616 131.5128355 -44.50854492 120.27026367 C-44.09262408 117.91417617 -43.68476661 115.55678821 -43.27734375 113.19921875 C-43.14923813 112.49383469 -43.02113251 111.78845062 -42.8891449 111.06169128 C-41.21791764 102.44003025 -41.21791764 102.44003025 -43.6875 94.49609375 C-44.450625 93.81675781 -45.21375 93.13742188 -46 92.4375 C-46.7425 91.75558594 -47.485 91.07367188 -48.25 90.37109375 C-49.7402672 89.08616166 -51.23127985 87.80208254 -52.72631836 86.52270508 C-58.54736637 81.49560404 -64.0812635 76.20654402 -69.5625 70.8125 C-70.48869141 69.92369141 -71.41488281 69.03488281 -72.36914062 68.11914062 C-73.23861328 67.26126953 -74.10808594 66.40339844 -75.00390625 65.51953125 C-75.79611572 64.74714111 -76.5883252 63.97475098 -77.40454102 63.17895508 C-77.93104248 62.4598999 -78.45754395 61.74084473 -79 61 C-78.59971619 58.86381531 -78.59971619 58.86381531 -78 57 C-77.35377686 56.93530518 -76.70755371 56.87061035 -76.04174805 56.80395508 C-69.28071288 56.11223593 -62.53762321 55.31653494 -55.79541016 54.4609375 C-53.28253992 54.15575938 -50.76634603 53.87671487 -48.24755859 53.625 C-34.94086636 52.83467067 -34.94086636 52.83467067 -23.18624878 47.47897339 C-20.33792607 43.78583353 -19.00385314 39.66144589 -17.7164917 35.22576904 C-16.49501861 31.43128408 -14.59715023 27.99552043 -12.75390625 24.47265625 C-12.05224049 23.07251181 -11.35365554 21.6708191 -10.65820312 20.26757812 C-10.314104 19.57736572 -9.97000488 18.88715332 -9.61547852 18.17602539 C-8.90028156 16.74049094 -8.1857878 15.30460599 -7.47192383 13.8684082 C-6.42193161 11.75639825 -5.36943049 9.64565575 -4.31640625 7.53515625 C-3.9966835 6.89054947 -3.67696075 6.24594269 -3.34754944 5.58180237 C-1.11386951 1.11386951 -1.11386951 1.11386951 0 0 Z " fill="#DADADA" transform="translate(862,48)"/>
<path d="M0 0 C2.93432511 0.90181 4.61683739 1.45845559 6.41870117 4.00512695 C6.78970947 4.82456787 7.16071777 5.64400879 7.54296875 6.48828125 C7.97230713 7.4127002 8.40164551 8.33711914 8.84399414 9.28955078 C9.50902954 10.78591064 9.50902954 10.78591064 10.1875 12.3125 C11.14815196 14.39987102 12.10909629 16.4871075 13.0703125 18.57421875 C13.5540332 19.63946777 14.03775391 20.7047168 14.53613281 21.80224609 C16.81245067 26.77476299 19.19129762 31.69722865 21.5625 36.625 C22.37832802 38.32454982 23.19227064 40.02500657 24.00390625 41.7265625 C24.34236572 42.43377441 24.6808252 43.14098633 25.02954102 43.86962891 C26.09920625 46.21777956 27.05845539 48.59794505 28 51 C28.92304932 51.05607422 28.92304932 51.05607422 29.86474609 51.11328125 C39.55331932 51.80665748 49.1304735 53.19596006 58.73974609 54.58398438 C61.65259166 55.00397835 64.56644882 55.41636662 67.48046875 55.828125 C69.33339773 56.09330038 71.18626475 56.35890924 73.0390625 56.625 C73.90979401 56.74794434 74.78052551 56.87088867 75.67764282 56.99755859 C81.76999812 57.88499906 81.76999812 57.88499906 84 59 C83.43867066 62.5371438 82.30442253 63.99261679 79.5625 66.25 C78.94503906 66.77078125 78.32757812 67.2915625 77.69140625 67.828125 C76 69 76 69 74 69 C73.67 69.99 73.34 70.98 73 72 C70.04373244 75.24235797 66.77934766 78.08857915 63.5 81 C62.22576172 82.18335938 62.22576172 82.18335938 60.92578125 83.390625 C58.77067743 85.31266686 56.65973176 87.01716619 54.35546875 88.734375 C47.83626143 93.83354159 47.83626143 93.83354159 44.64208984 101.18603516 C44.70151059 106.54399296 45.9816237 111.67360932 47.25927734 116.85302734 C48.37094653 121.57597256 49.18979316 126.34291972 50.02783203 131.12084961 C50.46019585 133.58141899 50.90727431 136.03945822 51.37060547 138.49438477 C52.41272261 144.07840241 53.30657254 149.31597942 53 155 C49.12738469 154.39579 46.13983301 153.22791379 42.67578125 151.41015625 C41.14497925 150.61085693 41.14497925 150.61085693 39.58325195 149.79541016 C38.50390381 149.2235498 37.42455566 148.65168945 36.3125 148.0625 C34.64803833 147.19310791 34.64803833 147.19310791 32.94995117 146.30615234 C27.76752883 143.58477366 22.62534018 140.81736503 17.5625 137.87890625 C16.75256592 137.41154053 15.94263184 136.9441748 15.1081543 136.46264648 C13.61623438 135.59332507 12.13267862 134.70942941 10.65942383 133.80883789 C7.63231303 132.04201459 5.48105765 130.99692811 1.94140625 131.01953125 C-1.5547635 132.18492117 -4.68276598 133.75122173 -7.875 135.5625 C-9.20071799 136.29367363 -10.52758119 137.02277396 -11.85546875 137.75 C-12.53657715 138.12382812 -13.21768555 138.49765625 -13.91943359 138.8828125 C-17.2987039 140.69735614 -20.74341223 142.37525325 -24.1875 144.0625 C-30.17905803 147.00308406 -35.8849449 150.20733983 -41.546875 153.75 C-44 155 -44 155 -48 155 C-48.33 153.02 -48.66 151.04 -49 149 C-48.34 149 -47.68 149 -47 149 C-46.94501343 148.11127197 -46.94501343 148.11127197 -46.88891602 147.20458984 C-46.21166655 138.22538365 -44.57063694 129.46747169 -42.9375 120.625 C-42.37905419 117.5972511 -41.82656426 114.56849661 -41.27734375 111.5390625 C-41.14923813 110.85566803 -41.02113251 110.17227356 -40.8891449 109.46817017 C-39.84222128 104.24712012 -39.84222128 104.24712012 -40 99 C-41.99334013 96.29942758 -41.99334013 96.29942758 -44.7421875 93.734375 C-45.22575714 93.25550842 -45.70932678 92.77664185 -46.20755005 92.28326416 C-47.7520245 90.76009946 -49.31327513 89.25545083 -50.875 87.75 C-51.91905447 86.72245616 -52.96203642 85.69382137 -54.00390625 84.6640625 C-58.59353777 79.78197195 -58.59353777 79.78197195 -64 76 C-64 75.34 -64 74.68 -64 74 C-64.66 74 -65.32 74 -66 74 C-66 73.34 -66 72.68 -66 72 C-66.66 72 -67.32 72 -68 72 C-68 71.34 -68 70.68 -68 70 C-68.598125 69.731875 -69.19625 69.46375 -69.8125 69.1875 C-71.99721913 68.00150961 -73.29470795 66.77943518 -75 65 C-75.99 64.34 -76.98 63.68 -78 63 C-78.495 61.515 -78.495 61.515 -79 60 C-78.67 59.34 -78.34 58.68 -78 58 C-76.01519775 57.50047302 -76.01519775 57.50047302 -73.37597656 57.14624023 C-71.89874115 56.94109047 -71.89874115 56.94109047 -70.3916626 56.73179626 C-69.31882019 56.59213943 -68.24597778 56.4524826 -67.140625 56.30859375 C-66.04409607 56.158423 -64.94756714 56.00825226 -63.81781006 55.85353088 C-60.2963065 55.37296037 -56.77327522 54.90488793 -53.25 54.4375 C-49.74139744 53.96396839 -46.23314814 53.48791229 -42.72503662 53.01075745 C-40.53842764 52.71424181 -38.35146539 52.42031729 -36.16412354 52.1292572 C-35.16669128 51.99564285 -34.16925903 51.8620285 -33.14160156 51.72436523 C-32.2674762 51.60826401 -31.39335083 51.49216278 -30.49273682 51.37254333 C-29.67013367 51.24960403 -28.84753052 51.12666473 -28 51 C-26.66632637 50.82661858 -26.66632637 50.82661858 -25.30570984 50.6497345 C-22.62055711 50.16616717 -22.62055711 50.16616717 -20.96704102 46.87988281 C-20.29377761 45.49666388 -19.64067599 44.1035187 -19.00390625 42.703125 C-18.64787827 41.95851013 -18.29185028 41.21389526 -17.92503357 40.44671631 C-16.7868073 38.05559807 -15.67455346 35.65338488 -14.5625 33.25 C-13.81872511 31.67759543 -13.0732986 30.10597097 -12.32617188 28.53515625 C-10.52725601 24.74183012 -8.75281687 20.93773734 -6.98858643 17.12817383 C-6.04257541 15.09165397 -5.08717291 13.05984243 -4.12841797 11.02929688 C-3.57943848 9.85947266 -3.03045898 8.68964844 -2.46484375 7.484375 C-1.98523193 6.46569336 -1.50562012 5.44701172 -1.01147461 4.39746094 C0.12957181 2.12656326 0.12957181 2.12656326 0 0 Z " fill="#FDC402" transform="translate(679,47)"/>
<path d="M0 0 C1.85864258 0.24414062 1.85864258 0.24414062 4 1 C5.22924805 2.77148437 5.22924805 2.77148437 6.26171875 5.09375 C6.65407715 5.95129883 7.04643555 6.80884766 7.45068359 7.69238281 C7.85883301 8.61889648 8.26698242 9.54541016 8.6875 10.5 C9.56582796 12.42333152 10.44739041 14.34518892 11.33203125 16.265625 C11.77498535 17.23048828 12.21793945 18.19535156 12.67431641 19.18945312 C14.60577184 23.28428092 16.72094246 27.26892893 18.875 31.25 C27 46.35857251 27 46.35857251 27 50 C27.68537842 50.03665771 28.37075684 50.07331543 29.0769043 50.11108398 C40.07368715 50.8209218 50.91653042 52.46408052 61.8125 54.0625 C63.77663557 54.34739938 65.74082793 54.63190757 67.70507812 54.91601562 C72.47071825 55.60617213 77.23556031 56.30160652 82 57 C82 61.42918796 81.36411523 62.1017932 78.39212036 65.11236572 C77.87342377 65.61669128 77.35472717 66.12101685 76.8203125 66.640625 C76.29235077 67.16767029 75.76438904 67.69471558 75.22042847 68.23773193 C74.10365297 69.34847013 72.98202535 70.45434803 71.85595703 71.55566406 C70.12797279 73.2470901 68.41657815 74.95402392 66.70703125 76.6640625 C65.62073181 77.74053289 64.53352255 78.81608609 63.4453125 79.890625 C62.6733403 80.65925873 62.6733403 80.65925873 61.88577271 81.44342041 C58.23213978 85 58.23213978 85 56 85 C55.67 85.99 55.34 86.98 55 88 C53.2578125 89.68359375 53.2578125 89.68359375 51.125 91.4375 C47.05030591 94.77824322 47.05030591 94.77824322 44 99 C44.12626332 101.62574628 44.40491708 103.86172166 44.9140625 106.4140625 C45.04355286 107.13749847 45.17304321 107.86093445 45.30645752 108.60629272 C45.7295459 110.94920654 46.17716107 113.28670376 46.625 115.625 C46.91735689 117.22232247 47.20788463 118.81998082 47.49658203 120.41796875 C48.06313629 123.54356178 48.63789592 126.66743655 49.22070312 129.79003906 C50.1625101 134.85062533 51.0342958 139.92170703 51.875 145 C51.99439941 145.69689941 52.11379883 146.39379883 52.23681641 147.11181641 C52.68784994 149.79099717 53 152.27530121 53 155 C49.00592005 153.4741717 45.19022236 151.67083595 41.375 149.75 C40.71201904 149.41863037 40.04903809 149.08726074 39.3659668 148.74584961 C34.59140217 146.34509177 29.85183257 143.88029682 25.12109375 141.39453125 C23.90514635 140.75741889 22.68916307 140.12037502 21.47314453 139.48339844 C19.05489846 138.21646439 16.64139268 136.94101644 14.22998047 135.66113281 C13.10865723 135.07299805 11.98733398 134.48486328 10.83203125 133.87890625 C9.32733276 133.08335327 9.32733276 133.08335327 7.79223633 132.27172852 C3.79368756 130.45058306 1.47161019 129.46000613 -2.76049805 131.01293945 C-3.75090088 131.54105225 -4.74130371 132.06916504 -5.76171875 132.61328125 C-6.87281006 133.19770996 -7.98390137 133.78213867 -9.12866211 134.38427734 C-10.31507801 135.02676605 -11.5013547 135.66951186 -12.6875 136.3125 C-13.90115591 136.95640741 -15.11543451 137.59914246 -16.33032227 138.24072266 C-24.1714316 142.39883615 -31.96121651 146.66379222 -39.61791992 151.15356445 C-43.11062359 153.16064523 -44.87267893 154 -49 154 C-48.42690155 147.42390788 -47.56476933 140.9750647 -46.37109375 134.484375 C-46.05528178 132.72136433 -45.73952826 130.9583432 -45.42382812 129.1953125 C-44.92942889 126.46096697 -44.43330423 123.72694471 -43.93579102 120.99316406 C-43.45152361 118.32433373 -42.97354072 115.65443258 -42.49609375 112.984375 C-42.34611435 112.17176208 -42.19613495 111.35914917 -42.04161072 110.52191162 C-41.08687327 105.16588758 -40.24181796 100.27454612 -42 95 C-42.66 95 -43.32 95 -44 95 C-44 94.34 -44 93.68 -44 93 C-44.81198853 92.67805664 -44.81198853 92.67805664 -45.64038086 92.34960938 C-48.83691658 90.52131662 -51.20544211 88.02108829 -53.75390625 85.40625 C-54.29603256 84.85892212 -54.83815887 84.31159424 -55.39671326 83.74768066 C-57.12347657 82.00315061 -58.84339145 80.25207116 -60.5625 78.5 C-62.28603273 76.74881187 -64.01101683 74.99911801 -65.73899841 73.25231934 C-66.81248437 72.16661754 -67.88328577 71.07825321 -68.95106506 69.98693848 C-71.21093447 67.69678681 -73.31077912 65.79281392 -76 64 C-76 63.34 -76 62.68 -76 62 C-76.99 61.67 -77.98 61.34 -79 61 C-78.67 59.68 -78.34 58.36 -78 57 C-71.13236609 55.99714326 -64.26379247 55.00092574 -57.39453125 54.00927734 C-55.05869847 53.67128156 -52.72308348 53.33177696 -50.38769531 52.99072266 C-47.02725705 52.50024167 -43.66606814 52.01522507 -40.3046875 51.53125 C-39.26384003 51.37813354 -38.22299255 51.22501709 -37.15060425 51.06726074 C-32.39540714 50.38763291 -27.81898501 49.79890972 -23 50 C-22.82126343 49.15924927 -22.82126343 49.15924927 -22.63891602 48.30151367 C-21.93121611 45.75222554 -20.93191102 43.55640104 -19.77734375 41.17578125 C-19.32488281 40.23726318 -18.87242188 39.29874512 -18.40625 38.33178711 C-17.9215625 37.33542236 -17.436875 36.33905762 -16.9375 35.3125 C-15.93573397 33.23720305 -14.93443587 31.16168017 -13.93359375 29.0859375 C-13.43714355 28.05823242 -12.94069336 27.03052734 -12.42919922 25.97167969 C-10.10181828 21.13244484 -7.82369846 16.27039851 -5.55053711 11.40551758 C-3.75617016 7.57430167 -1.90825519 3.77578542 0 0 Z " fill="#FDC403" transform="translate(135,48)"/>
<path d="M0 0 C1.76171875 0.06640625 1.76171875 0.06640625 4 1 C5.47069918 3.3220021 6.65544302 5.46927486 7.8125 7.9375 C8.13669922 8.58396484 8.46089844 9.23042969 8.79492188 9.89648438 C9.60353947 11.56393351 10.30995213 13.28009216 11 15 C10.67 15.66 10.34 16.32 10 17 C9.608125 16.505 9.21625 16.01 8.8125 15.5 C6.44908285 13.54406857 4.98564997 13.75792027 2 14 C1.67 13.34 1.34 12.68 1 12 C-0.32 12 -1.64 12 -3 12 C-3.268125 12.70125 -3.53625 13.4025 -3.8125 14.125 C-5 17 -5 17 -6.625 19.9375 C-8.10805573 23.24066957 -8.25541278 25.42422103 -8 29 C-9.65 29 -11.3 29 -13 29 C-11.45132055 23.92867663 -9.34615192 19.26843281 -7.0625 14.5 C-6.71509766 13.76652344 -6.36769531 13.03304687 -6.00976562 12.27734375 C-4.05434357 8.16027811 -2.05386448 4.06909828 0 0 Z M3 7 C4 9 4 9 4 9 Z M1 8 C1.33 8.99 1.66 9.98 2 11 C2.66 10.67 3.32 10.34 4 10 C3.01 9.34 2.02 8.68 1 8 Z " fill="#FAC818" transform="translate(135,48)"/>
<path d="M0 0 C1.65 0.33 3.3 0.66 5 1 C4.3596402 5.29250217 3.71179064 9.58384039 3.0625 13.875 C2.88009766 15.09832031 2.69769531 16.32164062 2.50976562 17.58203125 C2.24389648 19.33193359 2.24389648 19.33193359 1.97265625 21.1171875 C1.81031494 22.19597168 1.64797363 23.27475586 1.48071289 24.38623047 C1 27 1 27 0 29 C0.03174691 30.68835856 0.09974208 32.37612488 0.1875 34.0625 C0.26142339 39.19009515 -0.80478193 42.53085752 -3.109375 47.05078125 C-4.20534641 49.44942043 -4.33619937 51.39445484 -4 54 C-2.68 54.66 -1.36 55.32 0 56 C-3 58 -3 58 -7 58 C-7.33 56.02 -7.66 54.04 -8 52 C-7.34 52 -6.68 52 -6 52 C-5.96334229 51.40751465 -5.92668457 50.8150293 -5.88891602 50.20458984 C-5.21166655 41.22538365 -3.57063694 32.46747169 -1.9375 23.625 C-1.37905419 20.5972511 -0.82656426 17.56849661 -0.27734375 14.5390625 C-0.14923813 13.85566803 -0.02113251 13.17227356 0.1108551 12.46817017 C1.43657497 6.10370838 1.43657497 6.10370838 0 0 Z " fill="#FAD23C" transform="translate(638,144)"/>
<path d="M0 0 C1 2 1 2 0.0625 5.125 C-0.4634375 6.548125 -0.4634375 6.548125 -1 8 C-2.95292969 8.18175781 -2.95292969 8.18175781 -4.9453125 8.3671875 C-6.6719107 8.53609385 -8.39847128 8.70538501 -10.125 8.875 C-11.40890625 8.99294922 -11.40890625 8.99294922 -12.71875 9.11328125 C-17.45755707 9.58716196 -21.47612392 10.47665397 -26 12 C-29.60863039 12.66717273 -33.237011 13.14772701 -36.875 13.625 C-37.83019531 13.7590625 -38.78539062 13.893125 -39.76953125 14.03125 C-45.23420582 14.76587018 -50.48730103 15.14335624 -56 15 C-54.68 16.65 -53.36 18.3 -52 20 C-52.66 20.33 -53.32 20.66 -54 21 C-54 20.34 -54 19.68 -54 19 C-56.475 18.01 -56.475 18.01 -59 17 C-58.28936768 15.06854248 -58.28936768 15.06854248 -57 13 C-54.93963623 12.25323486 -54.93963623 12.25323486 -52.37011719 11.90332031 C-51.40861755 11.76347717 -50.44711792 11.62363403 -49.45648193 11.47955322 C-48.41381165 11.34708191 -47.37114136 11.2146106 -46.296875 11.078125 C-45.22632874 10.92841248 -44.15578247 10.77869995 -43.05279541 10.62445068 C-39.62061749 10.1492741 -36.18557094 9.69991334 -32.75 9.25 C-30.44900086 8.93256502 -28.14821589 8.61357343 -25.84765625 8.29296875 C-23.64341782 7.99080806 -21.43899578 7.68998325 -19.234375 7.390625 C-18.19980164 7.25005676 -17.16522827 7.10948853 -16.0993042 6.96466064 C-11.36720144 6.34657051 -6.78504611 5.81901016 -2 6 C-1.34 4.02 -0.68 2.04 0 0 Z " fill="#F9D450" transform="translate(477,92)"/>
<path d="M0 0 C0.33 0 0.66 0 1 0 C1.34617156 8.48120322 0.69213866 17.92358402 -2 26 C-2.06802967 27.72795352 -2.08495645 29.45835365 -2.0625 31.1875 C-2.04896484 32.53908203 -2.04896484 32.53908203 -2.03515625 33.91796875 C-2.02355469 34.60503906 -2.01195312 35.29210937 -2 36 C-1.38640625 35.82597656 -0.7728125 35.65195313 -0.140625 35.47265625 C2.2719798 34.93994607 3.67526878 35.25276496 6 36 C6 35.67 6 35.34 6 35 C7.98 35 9.96 35 12 35 C8.97170574 37.37121154 5.84686763 39.3558936 2.5 41.25 C1.5615625 41.79140625 0.623125 42.3328125 -0.34375 42.890625 C-3.29894461 44.12485334 -4.066497 43.9106668 -7 43 C-6.1639893 37.84046707 -5.32780229 32.68096276 -4.49145508 27.52148438 C-4.20722743 25.76791142 -3.92304715 24.01433078 -3.63891602 22.26074219 C-3.22945544 19.73370352 -2.81982201 17.20669291 -2.41015625 14.6796875 C-2.28407486 13.90132538 -2.15799347 13.12296326 -2.02809143 12.3210144 C-1.36183109 8.21233911 -0.687991 4.10510815 0 0 Z " fill="#FAD544" transform="translate(456,158)"/>
<path d="M0 0 C0.33 0 0.66 0 1 0 C1.85769012 4.92905695 2.71210233 9.85866656 3.56347656 14.78881836 C3.85359018 16.46605796 4.14460026 18.14314276 4.43652344 19.82006836 C4.85587346 22.22990462 5.27200063 24.64027848 5.6875 27.05078125 C5.81874268 27.80087967 5.94998535 28.55097809 6.08520508 29.32380676 C6.58830697 32.25761879 7 35.01699745 7 38 C2.3970402 36.27502493 -1.93255824 34.0904129 -6.3125 31.875 C-7.05306641 31.50246094 -7.79363281 31.12992188 -8.55664062 30.74609375 C-10.37201217 29.83255194 -12.18613282 28.91652513 -14 28 C-14 27.67 -14 27.34 -14 27 C-12.39482903 27.08733576 -10.79078338 27.19552224 -9.1875 27.3125 C-8.29417969 27.37050781 -7.40085938 27.42851562 -6.48046875 27.48828125 C-3.64804879 28.07260726 -2.8616678 28.87237965 -1 31 C1.10332891 31.71447643 1.10332891 31.71447643 3 32 C2.68289062 31.50628906 2.36578125 31.01257813 2.0390625 30.50390625 C0.60261959 27.04240284 0.53050975 23.63359738 0.375 19.9375 C0.33705322 19.1854126 0.29910645 18.4333252 0.26000977 17.65844727 C-0.01755129 11.77176125 -0.11454628 5.89276951 0 0 Z " fill="#FBD44B" transform="translate(181,165)"/>
<path d="M0 0 C-0.33 0.66 -0.66 1.32 -1 2 C-2.258125 2.103125 -3.51625 2.20625 -4.8125 2.3125 C-8.23085603 2.65679485 -8.86418987 2.87743964 -11.5625 5.3125 C-13.21233957 7.80751192 -13.21233957 7.80751192 -12.8125 10.125 C-12.544375 10.74375 -12.27625 11.3625 -12 12 C-11.67 12.99 -11.34 13.98 -11 15 C-8.98491642 15.73323796 -8.98491642 15.73323796 -7 16 C-6.67 17.65 -6.34 19.3 -6 21 C-7.1725131 20.04882866 -8.33787015 19.08882991 -9.5 18.125 C-10.1496875 17.59132813 -10.799375 17.05765625 -11.46875 16.5078125 C-11.9740625 16.01023437 -12.479375 15.51265625 -13 15 C-13 14.34 -13 13.68 -13 13 C-13.556875 12.7525 -14.11375 12.505 -14.6875 12.25 C-18.62640804 10.12086052 -21.55694029 8.32917913 -23 4 C-20.25824287 1.25824287 -18.12745025 1.38582224 -14.3125 0.875 C-13.11238281 0.70742187 -11.91226563 0.53984375 -10.67578125 0.3671875 C-7.08855293 0.00884588 -3.60223901 -0.06473857 0 0 Z " fill="#FACC2A" transform="translate(260,103)"/>
<path d="M0 0 C1.0625 1.875 1.0625 1.875 2 4 C1 6 1 6 -1.25 7.3125 C-4.15965968 8.95106053 -4.15965968 8.95106053 -6.6875 11.6875 C-7.8321875 12.8321875 -7.8321875 12.8321875 -9 14 C-9.66 14 -10.32 14 -11 14 C-11.66 15.32 -12.32 16.64 -13 18 C-14 15 -14 15 -12.9375 12 C-12.628125 11.01 -12.31875 10.02 -12 9 C-12.66 8.01 -13.32 7.02 -14 6 C-13.401875 5.566875 -12.80375 5.13375 -12.1875 4.6875 C-10.0005787 3.14583219 -10.0005787 3.14583219 -8.6875 1.3125 C-5.98683904 -0.78801408 -3.29221868 -0.186352 0 0 Z " fill="#FBCB1E" transform="translate(398,105)"/>
<path d="M0 0 C0.33 0 0.66 0 1 0 C0.67 5.94 0.34 11.88 0 18 C0.99 17.67 1.98 17.34 3 17 C3.33 15.68 3.66 14.36 4 13 C9.445 12.505 9.445 12.505 15 12 C15 11.34 15 10.68 15 10 C16.65 9.67 18.3 9.34 20 9 C20 8.34 20 7.68 20 7 C21.65 7 23.3 7 25 7 C20.61091847 10.41519143 15.85545918 12.99965653 11 15.6875 C10.09765625 16.19861328 9.1953125 16.70972656 8.265625 17.23632812 C7.39421875 17.71908203 6.5228125 18.20183594 5.625 18.69921875 C4.83351563 19.14096436 4.04203125 19.58270996 3.2265625 20.0378418 C1 21 1 21 -3 21 C-2.41523944 13.90593106 -1.36766005 6.98436101 0 0 Z " fill="#F8D435" transform="translate(89,181)"/>
<path d="M0 0 C0.66 0.99 1.32 1.98 2 3 C1.67 3.99 1.34 4.98 1 6 C0.34 6 -0.32 6 -1 6 C-1.144375 6.78375 -1.28875 7.5675 -1.4375 8.375 C-2 11 -2 11 -3 13 C-3.66 13 -4.32 13 -5 13 C-5.103125 13.928125 -5.20625 14.85625 -5.3125 15.8125 C-6.00841257 19.03900374 -6.29607863 20.19738575 -9 22 C-10.32 22 -11.64 22 -13 22 C-13 21.01 -13 20.02 -13 19 C-17.62 19 -22.24 19 -27 19 C-27 18.67 -27 18.34 -27 18 C-24.79248152 17.66131223 -22.58394089 17.32928311 -20.375 17 C-19.14523437 16.814375 -17.91546875 16.62875 -16.6484375 16.4375 C-13.3833973 16.04597484 -10.28287549 15.91919076 -7 16 C-6.72414063 15.29488281 -6.44828125 14.58976562 -6.1640625 13.86328125 C-4.97316845 10.9340016 -3.69124864 8.06246414 -2.375 5.1875 C-1.92898438 4.21167969 -1.48296875 3.23585938 -1.0234375 2.23046875 C-0.51683594 1.12638672 -0.51683594 1.12638672 0 0 Z " fill="#FBCF31" transform="translate(300,82)"/>
<path d="M0 0 C0.33 0 0.66 0 1 0 C1.50505263 2.89503383 2.0042022 5.79087953 2.5 8.6875 C2.64308594 9.50412109 2.78617187 10.32074219 2.93359375 11.16210938 C3.61165962 15.14978248 4.19858392 18.93730404 4 23 C-0.55315948 22.38188466 -4.28459767 20.53234107 -8.3125 18.4375 C-8.95767578 18.10814453 -9.60285156 17.77878906 -10.26757812 17.43945312 C-11.84785228 16.63175745 -13.42432105 15.81662387 -15 15 C-15 14.67 -15 14.34 -15 14 C-13.56138706 14.08746284 -12.12402492 14.19565348 -10.6875 14.3125 C-9.88699219 14.37050781 -9.08648437 14.42851562 -8.26171875 14.48828125 C-5.59920691 15.0906803 -4.76972072 15.98334151 -3 18 C-0.90010348 19.17574711 -0.90010348 19.17574711 1 20 C1 18.02 1 16.04 1 14 C0.01 13.67 -0.98 13.34 -2 13 C-2 12.01 -2 11.02 -2 10 C-1.34 10 -0.68 10 0 10 C0 6.7 0 3.4 0 0 Z " fill="#FAD649" transform="translate(365,179)"/>
<path d="M0 0 C1.32 0 2.64 0 4 0 C4.33 1.32 4.66 2.64 5 4 C5.99 4 6.98 4 8 4 C8 4.99 8 5.98 8 7 C8.99 7 9.98 7 11 7 C11.33 7.66 11.66 8.32 12 9 C12.99 9.33 13.98 9.66 15 10 C15.33 11.65 15.66 13.3 16 15 C16.66 15 17.32 15 18 15 C17.34 20.28 16.68 25.56 16 31 C15.34 31 14.68 31 14 31 C14.24621094 30.09121094 14.49242187 29.18242187 14.74609375 28.24609375 C16.18108516 20.74906089 16.18108516 20.74906089 13.57519531 13.83349609 C9.88649453 9.57482966 5.7204409 5.85009365 1.39282227 2.25244141 C0.93319092 1.83913574 0.47355957 1.42583008 0 1 C0 0.67 0 0.34 0 0 Z " fill="#F8D53F" transform="translate(261,130)"/>
<path d="M0 0 C1.79356554 0.01168447 3.58693086 0.10920715 5.375 0.25 C6.35210937 0.31703125 7.32921875 0.3840625 8.3359375 0.453125 C11.31850657 1.06538258 12.08028477 1.73226621 14 4 C14.99 4.66 15.98 5.32 17 6 C17 6.66 17 7.32 17 8 C13.76475205 6.99861373 10.9122343 5.95163931 7.9375 4.3125 C4.48350632 2.76922623 3.56429275 3.01280522 0 4 C-1.95804995 4.80594499 -3.8960874 5.66201697 -5.8125 6.5625 C-6.78832031 7.01753906 -7.76414062 7.47257813 -8.76953125 7.94140625 C-9.50558594 8.29074219 -10.24164063 8.64007813 -11 9 C-10.67 7.35 -10.34 5.7 -10 4 C-9.36191406 3.79503906 -8.72382813 3.59007812 -8.06640625 3.37890625 C-7.24011719 3.10949219 -6.41382813 2.84007812 -5.5625 2.5625 C-4.73878906 2.29566406 -3.91507812 2.02882812 -3.06640625 1.75390625 C-1.03780412 1.17844506 -1.03780412 1.17844506 0 0 Z " fill="#FBD435" transform="translate(315,175)"/>
<path d="M0 0 C1.36024774 4.69996047 0.53466611 8.39600166 -1 13 C-1.639375 13.103125 -2.27875 13.20625 -2.9375 13.3125 C-3.618125 13.539375 -4.29875 13.76625 -5 14 C-6.16830035 16.66500695 -6.16830035 16.66500695 -7 20 C-8.56074938 24.59254991 -10.1466469 29.03011742 -13 33 C-13.66 33 -14.32 33 -15 33 C-13.63864937 28.64023152 -11.95568515 24.61464589 -9.9609375 20.5078125 C-9.67521881 19.91700897 -9.38950012 19.32620544 -9.09512329 18.71749878 C-8.191824 16.85165681 -7.28350839 14.9883102 -6.375 13.125 C-5.75747773 11.8517248 -5.14028701 10.57828876 -4.5234375 9.3046875 C-3.01945183 6.20125692 -1.51096073 3.10004175 0 0 Z " fill="#FAD64F" transform="translate(672,64)"/>
<path d="M0 0 C0.99 0 1.98 0 3 0 C3.33 1.32 3.66 2.64 4 4 C4.66 4 5.32 4 6 4 C6.24613739 10.52264091 5.53020433 16.64462582 4 23 C3.67 23.33 3.34 23.66 3 24 C2.43725235 26.68544346 1.91938977 29.36253387 1.4375 32.0625 C1.29892578 32.82111328 1.16035156 33.57972656 1.01757812 34.36132812 C0.67488173 36.24024975 0.3369927 38.12004701 0 40 C-0.33 40 -0.66 40 -1 40 C-0.5119099 32.35886528 0.61530423 24.89625308 1.98364258 17.37158203 C2.92254422 12.06293123 3.74227278 7.22681834 2 2 C1.34 2 0.68 2 0 2 C0 1.34 0 0.68 0 0 Z " fill="#FAD74F" transform="translate(91,141)"/>
<path d="M0 0 C7.13393752 0.51537952 14.01812817 1.44005901 21 3 C20.43867066 6.5371438 19.30442253 7.99261679 16.5625 10.25 C15.94503906 10.77078125 15.32757812 11.2915625 14.69140625 11.828125 C13 13 13 13 11 13 C10.67 13.66 10.34 14.32 10 15 C10.62759865 12.07120629 11.58622659 9.63904371 13 7 C14.32 7 15.64 7 17 7 C17 6.01 17 5.02 17 4 C14.69 4 12.38 4 10 4 C10 3.34 10 2.68 10 2 C6.7 2 3.4 2 0 2 C0 1.34 0 0.68 0 0 Z " fill="#FADC57" transform="translate(742,103)"/>
<path d="M0 0 C2.31 0 4.62 0 7 0 C6.10698344 1.06486855 5.2104053 2.12675041 4.3125 3.1875 C3.77109375 3.83976563 3.2296875 4.49203125 2.671875 5.1640625 C1 7 1 7 -1.9375 9.0625 C-5.49512546 14.12942111 -3.80686879 20.0962769 -3 26 C-3.66 25.67 -4.32 25.34 -5 25 C-5.37890625 23.14453125 -5.37890625 23.14453125 -5.5625 20.8125 C-5.88840952 17.16929713 -6.35326509 13.60323738 -7 10 C-6.01 10 -5.02 10 -4 10 C-3.67 8.68 -3.34 7.36 -3 6 C-2.34 6.33 -1.68 6.66 -1 7 C-0.67 4.69 -0.34 2.38 0 0 Z " fill="#FAD132" transform="translate(728,134)"/>
<path d="M0 0 C0.99 0.66 1.98 1.32 3 2 C3 4 3 4 0.5625 6.5625 C-0.283125 7.366875 -1.12875 8.17125 -2 9 C-2.33 9.33 -2.66 9.66 -3 10 C-2.74439971 12.70583756 -2.43240022 15.37210774 -2.0625 18.0625 C-1.96259766 18.82111328 -1.86269531 19.57972656 -1.75976562 20.36132812 C-1.51143543 22.24154246 -1.25634249 24.12086128 -1 26 C-1.66 26 -2.32 26 -3 26 C-3.09087891 25.04287109 -3.09087891 25.04287109 -3.18359375 24.06640625 C-3.26738281 23.24011719 -3.35117188 22.41382813 -3.4375 21.5625 C-3.51871094 20.73878906 -3.59992188 19.91507813 -3.68359375 19.06640625 C-3.78930815 17.01337975 -3.78930815 17.01337975 -5 16 C-5.42766593 11.96161167 -5.5100391 8.03147926 -5 4 C-2.5 1.25 -2.5 1.25 0 0 Z " fill="#FAD13B" transform="translate(182,137)"/>
<path d="M0 0 C0.66 1.32 1.32 2.64 2 4 C1.01 4.99 0.02 5.98 -1 7 C1.64 9.97 4.28 12.94 7 16 C6.67 16.66 6.34 17.32 6 18 C4.34507626 16.42617053 2.70133976 14.84057098 1.0625 13.25 C0.14597656 12.36828125 -0.77054687 11.4865625 -1.71484375 10.578125 C-3.93167353 8.07708627 -4.33681608 7.09951221 -5 4 C-5.99 3.67 -6.98 3.34 -8 3 C-8 2.34 -8 1.68 -8 1 C-5.36 0.67 -2.72 0.34 0 0 Z " fill="#FACD22" transform="translate(429,106)"/>
<path d="M0 0 C3.125 -0.1875 3.125 -0.1875 6 0 C4.32873916 3.34252168 0.63026486 4.3140976 -2.625 5.875 C-6.79010498 7.89235287 -10.90776875 9.90975183 -14.8984375 12.2578125 C-18 14 -18 14 -20 14 C-19.67 12.35 -19.34 10.7 -19 9 C-18.30261719 8.88398438 -17.60523438 8.76796875 -16.88671875 8.6484375 C-13.69206096 7.93082831 -10.84138271 6.86665378 -7.8125 5.625 C-6.24435547 4.99464844 -6.24435547 4.99464844 -4.64453125 4.3515625 C-1.73947497 3.13837633 -1.73947497 3.13837633 0 0 Z " fill="#FBD339" transform="translate(658,185)"/>
<path d="M0 0 C2.75 -0.25 2.75 -0.25 6 0 C8.375 2 8.375 2 10 4 C7 4 7 4 4.16796875 3.3125 C0.19149454 2.92024607 -1.33838991 3.90739007 -4.6875 6 C-7.51171875 7.75 -7.51171875 7.75 -10 9 C-10.99 8.67 -11.98 8.34 -13 8 C-12.67 7.01 -12.34 6.02 -12 5 C-12.66 4.67 -13.32 4.34 -14 4 C-11.33333333 4 -8.66666667 4 -6 4 C-4.2488427 2.5833253 -4.2488427 2.5833253 -3 1 C-2.01 1.33 -1.02 1.66 0 2 C0 1.34 0 0.68 0 0 Z " fill="#FAD231" transform="translate(497,175)"/>
<path d="M0 0 C2.97 0 5.94 0 9 0 C9.33 0.66 9.66 1.32 10 2 C12.01669827 3.13350534 12.01669827 3.13350534 14 4 C14 4.66 14 5.32 14 6 C16.97 6.495 16.97 6.495 20 7 C20 7.66 20 8.32 20 9 C20.99 9.33 21.98 9.66 23 10 C23 10.66 23 11.32 23 12 C18.45566546 10.28583059 14.15204552 8.16780916 9.8125 6 C9.08869141 5.64421875 8.36488281 5.2884375 7.61914062 4.921875 C2.23962199 2.23962199 2.23962199 2.23962199 0 0 Z " fill="#F8D848" transform="translate(702,187)"/>
<path d="M0 0 C0.99 0.33 1.98 0.66 3 1 C-0.11692909 4.17469938 -3.24483546 7.33835392 -6.375 10.5 C-7.26445313 11.40621094 -8.15390625 12.31242187 -9.0703125 13.24609375 C-9.92109375 14.10332031 -10.771875 14.96054688 -11.6484375 15.84375 C-12.43395996 16.63974609 -13.21948242 17.43574219 -14.02880859 18.25585938 C-16 20 -16 20 -18 20 C-18 19.01 -18 18.02 -18 17 C-16.68 16.67 -15.36 16.34 -14 16 C-13.67 14.68 -13.34 13.36 -13 12 C-12.01 12 -11.02 12 -10 12 C-9.896875 11.401875 -9.79375 10.80375 -9.6875 10.1875 C-8.89496146 7.66578648 -8.08408591 6.60314301 -6 5 C-5.01 5 -4.02 5 -3 5 C-2.67 4.01 -2.34 3.02 -2 2 C-1.34 2 -0.68 2 0 2 C0 1.34 0 0.68 0 0 Z " fill="#FBD73F" transform="translate(570,115)"/>
<path d="M0 0 C11.08693071 0.66567493 22.02376553 2.36035171 33 4 C33 4.33 33 4.66 33 5 C6.7181067 5.48570234 6.7181067 5.48570234 0 0 Z " fill="#FCD33E" transform="translate(707,98)"/>
<path d="M0 0 C-6.625 2 -6.625 2 -10 2 C-10 2.99 -10 3.98 -10 5 C-8.35 5 -6.7 5 -5 5 C-4.896875 5.639375 -4.79375 6.27875 -4.6875 6.9375 C-4.460625 7.618125 -4.23375 8.29875 -4 9 C-3.01 9.33 -2.02 9.66 -1 10 C-0.3125 12.0625 -0.3125 12.0625 0 14 C-0.66 14 -1.32 14 -2 14 C-2 13.34 -2 12.68 -2 12 C-2.598125 11.731875 -3.19625 11.46375 -3.8125 11.1875 C-5.99721913 10.00150961 -7.29470795 8.77943518 -9 7 C-9.99 6.34 -10.98 5.68 -12 5 C-12.33 4.01 -12.66 3.02 -13 2 C-12.67 1.34 -12.34 0.68 -12 0 C-3.89667897 -1.46125461 -3.89667897 -1.46125461 0 0 Z " fill="#F9DA47" transform="translate(613,105)"/>
<path d="M0 0 C0.99 0.33 1.98 0.66 3 1 C2.50056885 1.56315918 2.0011377 2.12631836 1.48657227 2.70654297 C-0.29513852 5.45533441 -0.2305099 6.50398433 0.21484375 9.6953125 C0.32376953 10.57574219 0.43269531 11.45617187 0.54492188 12.36328125 C0.73924805 13.73033203 0.73924805 13.73033203 0.9375 15.125 C1.18552985 16.93879775 1.42429131 18.75389482 1.65234375 20.5703125 C1.76570068 21.37227051 1.87905762 22.17422852 1.99584961 23.00048828 C1.99721924 23.66032715 1.99858887 24.32016602 2 25 C1.34 25.66 0.68 26.32 0 27 C-0.18175781 25.87464844 -0.18175781 25.87464844 -0.3671875 24.7265625 C-1.44865125 18.12131468 -2.63720699 11.55300468 -4 5 C-2.68 4.34 -1.36 3.68 0 3 C0 2.01 0 1.02 0 0 Z " fill="#FAD545" transform="translate(361,141)"/>
<path d="M0 0 C2.64 0 5.28 0 8 0 C7.67 0.66 7.34 1.32 7 2 C4.4375 2.625 4.4375 2.625 2 3 C2.9075 3.721875 3.815 4.44375 4.75 5.1875 C7.57936142 7.53201779 9.72150989 10.11391253 12 13 C14.12603185 14.76323505 14.12603185 14.76323505 16 16 C15.67 16.99 15.34 17.98 15 19 C14.31292969 18.30132812 13.62585938 17.60265625 12.91796875 16.8828125 C12.01691406 15.97273438 11.11585937 15.06265625 10.1875 14.125 C9.29417969 13.22007813 8.40085937 12.31515625 7.48046875 11.3828125 C5.04361667 8.90168486 5.04361667 8.90168486 2 7 C2 6.34 2 5.68 2 5 C1.01 4.67 0.02 4.34 -1 4 C-0.67 2.68 -0.34 1.36 0 0 Z " fill="#F9D541" transform="translate(57,105)"/>
<path d="M0 0 C1.98 0 3.96 0 6 0 C6 1.65 6 3.3 6 5 C6.61875 5.0825 7.2375 5.165 7.875 5.25 C10.66938743 6.23625439 10.716952 7.43390399 12 10 C14.05000871 10.80528889 14.05000871 10.80528889 16 11 C16 12.32 16 13.64 16 15 C15.34 15 14.68 15 14 15 C14 14.34 14 13.68 14 13 C13.34 13 12.68 13 12 13 C12 12.34 12 11.68 12 11 C11.42765625 10.75378906 10.8553125 10.50757813 10.265625 10.25390625 C7.63481257 8.79788765 5.85191095 7.08222766 3.75 4.9375 C3.04359375 4.22464844 2.3371875 3.51179688 1.609375 2.77734375 C0 1 0 1 0 0 Z " fill="#FADA41" transform="translate(436,124)"/>
<path d="M0 0 C0.33 0.66 0.66 1.32 1 2 C1.99 2.33 2.98 2.66 4 3 C-0.62 7.62 -5.24 12.24 -10 17 C-10.33 15.68 -10.66 14.36 -11 13 C-10.34 12.01 -9.68 11.02 -9 10 C-8.34 10 -7.68 10 -7 10 C-3.52071486 6.9556255 -1.39153744 4.42761914 0 0 Z " fill="#FCD737" transform="translate(205,114)"/>
<path d="M0 0 C2.64 0 5.28 0 8 0 C8 4 8 4 5.625 6.6875 C3 9 3 9 1 10 C0.67 6.7 0.34 3.4 0 0 Z " fill="#F9C91E" transform="translate(572,105)"/>
<path d="M0 0 C-0.33 0.99 -0.66 1.98 -1 3 C-8.92 3.495 -8.92 3.495 -17 4 C-15.68 5.65 -14.36 7.3 -13 9 C-13.99 9.495 -13.99 9.495 -15 10 C-15 9.34 -15 8.68 -15 8 C-17.475 7.01 -17.475 7.01 -20 6 C-19.4296875 4.078125 -19.4296875 4.078125 -18 2 C-14.8828125 1.171875 -14.8828125 1.171875 -11.125 0.75 C-9.89007813 0.60046875 -8.65515625 0.4509375 -7.3828125 0.296875 C-4 0 -4 0 0 0 Z " fill="#FBD444" transform="translate(438,103)"/>
<path d="M0 0 C-0.33 0.66 -0.66 1.32 -1 2 C-9.36005938 4.67654075 -18.34187243 4.21031889 -27 4 C-27 3.67 -27 3.34 -27 3 C-24.00114586 2.49212954 -21.00121874 1.99353375 -18 1.5 C-16.74123047 1.28537109 -16.74123047 1.28537109 -15.45703125 1.06640625 C-10.22817799 0.21519758 -5.29724973 -0.14714583 0 0 Z " fill="#FCD64F" transform="translate(92,101)"/>
<path d="M0 0 C0.66 1.65 1.32 3.3 2 5 C1.113125 4.690625 0.22625 4.38125 -0.6875 4.0625 C-1.780625 3.711875 -2.87375 3.36125 -4 3 C-4.78375 2.71125 -5.5675 2.4225 -6.375 2.125 C-9.9768418 1.95348372 -12.16307524 3.40454086 -15.23046875 5.1875 C-15.81441406 5.455625 -16.39835937 5.72375 -17 6 C-17.66 5.67 -18.32 5.34 -19 5 C-18.01 4.67 -17.02 4.34 -16 4 C-15.26676204 1.98491642 -15.26676204 1.98491642 -15 0 C-9.96266834 -1.5111995 -5.11828973 -0.64599773 0 0 Z " fill="#FBD63E" transform="translate(144,176)"/>
<path d="M0 0 C0.33 0 0.66 0 1 0 C2.32965354 8.11088658 1.60339409 15.18981773 -1 23 C-1.66 23 -2.32 23 -3 23 C-2.41993763 15.24548194 -1.37559416 7.65257723 0 0 Z " fill="#FAD343" transform="translate(274,161)"/>
<path d="M0 0 C1.65 0 3.3 0 5 0 C5.103125 0.639375 5.20625 1.27875 5.3125 1.9375 C5.539375 2.618125 5.76625 3.29875 6 4 C6.99 4.33 7.98 4.66 9 5 C8.67 8.96 8.34 12.92 8 17 C7.01 17.33 6.02 17.66 5 18 C5.01160156 17.16855469 5.02320313 16.33710938 5.03515625 15.48046875 C5.04417969 14.39378906 5.05320312 13.30710938 5.0625 12.1875 C5.07410156 11.10855469 5.08570313 10.02960938 5.09765625 8.91796875 C5.13624766 5.93487831 5.13624766 5.93487831 4 3 C3.34 3 2.68 3 2 3 C2 2.34 2 1.68 2 1 C1.34 0.67 0.68 0.34 0 0 Z " fill="#FAD346" transform="translate(452,140)"/>
<path d="M0 0 C1.60517097 0.08733576 3.20921662 0.19552224 4.8125 0.3125 C6.15248047 0.39951172 6.15248047 0.39951172 7.51953125 0.48828125 C10.37306171 1.07696234 11.09946649 1.88349677 13 4 C16.10007201 5.20049407 16.10007201 5.20049407 19 6 C19 6.99 19 7.98 19 9 C14.01400883 8.46199791 10.48164295 6.88255471 6.125 4.4375 C4.97257813 3.79683594 3.82015625 3.15617188 2.6328125 2.49609375 C1.76398438 2.00238281 0.89515625 1.50867188 0 1 C0 0.67 0 0.34 0 0 Z " fill="#F9D444" transform="translate(167,192)"/>
<path d="M0 0 C0.29519531 0.62390625 0.59039062 1.2478125 0.89453125 1.890625 C4.22042495 5.22268919 8.14558972 5.18516844 12.6875 5.75 C13.58017578 5.87503906 14.47285156 6.00007813 15.39257812 6.12890625 C17.59341382 6.4349048 19.79516245 6.72459361 22 7 C22 7.33 22 7.66 22 8 C18.89591193 8.05807043 15.7919636 8.09361914 12.6875 8.125 C11.36588867 8.15013672 11.36588867 8.15013672 10.01757812 8.17578125 C9.17001953 8.18222656 8.32246094 8.18867187 7.44921875 8.1953125 C6.66893311 8.20578613 5.88864746 8.21625977 5.0847168 8.22705078 C3 8 3 8 0 6 C-0.1875 2.875 -0.1875 2.875 0 0 Z " fill="#FBD44E" transform="translate(341,93)"/>
<path d="M0 0 C9.08923201 0.5737389 18.00200434 1.61050442 27 3 C27 3.33 27 3.66 27 4 C6.86432927 4.28810976 6.86432927 4.28810976 0 2 C0 1.34 0 0.68 0 0 Z " fill="#FAD44F" transform="translate(364,101)"/>
<path d="M0 0 C3.43202302 2.77729863 4.91022334 6.64061811 6.6875 10.5625 C7.00783203 11.24763672 7.32816406 11.93277344 7.65820312 12.63867188 C10 17.72671242 10 17.72671242 10 20 C9.34 20 8.68 20 8 20 C5 14.25 5 14.25 5 12 C4.01 11.67 3.02 11.34 2 11 C0.60955102 7.12137916 0 4.13537997 0 0 Z " fill="#FBCB32" transform="translate(331,73)"/>
<path d="M0 0 C0.33 0 0.66 0 1 0 C0.67 5.94 0.34 11.88 0 18 C1.98 17.67 3.96 17.34 6 17 C1.5 21 1.5 21 -3 21 C-2.41523944 13.90593106 -1.36766005 6.98436101 0 0 Z " fill="#F8D649" transform="translate(89,181)"/>
<path d="M0 0 C0.5775 0.2475 1.155 0.495 1.75 0.75 C1.09 0.75 0.43 0.75 -0.25 0.75 C-0.25 1.41 -0.25 2.07 -0.25 2.75 C-0.91 2.75 -1.57 2.75 -2.25 2.75 C-2.25 3.41 -2.25 4.07 -2.25 4.75 C-2.91 4.75 -3.57 4.75 -4.25 4.75 C-4.25 5.41 -4.25 6.07 -4.25 6.75 C-4.91 6.75 -5.57 6.75 -6.25 6.75 C-7.34506492 10.03519475 -7.34960608 12.48663415 -7.3125 15.9375 C-7.30347656 17.02417969 -7.29445313 18.11085937 -7.28515625 19.23046875 C-7.27355469 20.06191406 -7.26195312 20.89335937 -7.25 21.75 C-7.91 21.75 -8.57 21.75 -9.25 21.75 C-9.25 17.13 -9.25 12.51 -9.25 7.75 C-8.59 7.75 -7.93 7.75 -7.25 7.75 C-7.1675 7.1725 -7.085 6.595 -7 6 C-5.82268213 2.46804639 -3.98490757 -0.44276751 0 0 Z " fill="#F9D64D" transform="translate(550.25,136.25)"/>
<path d="M0 0 C0.33 0 0.66 0 1 0 C1.02703381 1.93742341 1.04641125 3.87495479 1.0625 5.8125 C1.07410156 6.89144531 1.08570313 7.97039062 1.09765625 9.08203125 C1 12 1 12 0 15 C1.32 15 2.64 15 4 15 C4 14.34 4 13.68 4 13 C5.65 13 7.3 13 9 13 C2.63636364 18 2.63636364 18 -2 18 C-1.48758893 11.97099313 -0.930215 5.97995357 0 0 Z " fill="#F8D854" transform="translate(270,184)"/>
<path d="M0 0 C0.33 0 0.66 0 1 0 C1.50505263 2.89503383 2.0042022 5.79087953 2.5 8.6875 C2.64308594 9.50412109 2.78617188 10.32074219 2.93359375 11.16210938 C3.61165962 15.14978248 4.19858392 18.93730404 4 23 C1 21 1 21 0.31640625 18.3671875 C-0.03675123 14.60889435 -0.10998992 10.89496933 -0.0625 7.125 C-0.05798828 6.43664062 -0.05347656 5.74828125 -0.04882812 5.0390625 C-0.03716336 3.35933665 -0.01923271 1.67965625 0 0 Z " fill="#FAD445" transform="translate(725,161)"/>
<path d="M0 0 C7.02673515 0.50343987 14.01940909 1.04187968 21 2 C21 3.32 21 4.64 21 6 C20.01 6.66 19.02 7.32 18 8 C18 6.68 18 5.36 18 4 C16.86820313 3.87882812 15.73640625 3.75765625 14.5703125 3.6328125 C13.08848969 3.46399724 11.60672158 3.29470145 10.125 3.125 C9.37863281 3.04636719 8.63226563 2.96773438 7.86328125 2.88671875 C2.2265625 2.2265625 2.2265625 2.2265625 0 0 Z " fill="#F9D652" transform="translate(196,103)"/>
<path d="M0 0 C0.83996934 2.37727173 1.18163274 3.5491127 0.22265625 5.9296875 C-0.35162109 6.89261719 -0.35162109 6.89261719 -0.9375 7.875 C-2.8639629 11.41015872 -3.40852614 13.91473858 -3 18 C-4.65 18 -6.3 18 -8 18 C-6.65150163 13.64029169 -4.95092154 9.68658562 -2.875 5.625 C-2.33617188 4.56539062 -1.79734375 3.50578125 -1.2421875 2.4140625 C-0.83226562 1.61742187 -0.42234375 0.82078125 0 0 Z " fill="#FAD23E" transform="translate(130,59)"/>
<path d="M0 0 C-0.33 0.66 -0.66 1.32 -1 2 C-3.51171875 2.6328125 -3.51171875 2.6328125 -6.6875 3.125 C-7.72261719 3.29257813 -8.75773437 3.46015625 -9.82421875 3.6328125 C-12.91601663 3.99028975 -15.89093277 4.06525778 -19 4 C-19 3.34 -19 2.68 -19 2 C-12.53205867 0.48766299 -6.64409958 -0.21432579 0 0 Z " fill="#FBD143" transform="translate(457,101)"/>
<path d="M0 0 C0.99 0 1.98 0 3 0 C6 5.75 6 5.75 6 8 C5.34 8 4.68 8 4 8 C4 7.34 4 6.68 4 6 C2.05925139 6.27617533 2.05925139 6.27617533 0 7 C-0.99 8.485 -0.99 8.485 -2 10 C-2.66 10 -3.32 10 -4 10 C-3.52449439 8.51965236 -3.04448784 7.04074979 -2.5625 5.5625 C-2.29566406 4.73878906 -2.02882813 3.91507813 -1.75390625 3.06640625 C-1 1 -1 1 0 0 Z " fill="#FBD95B" transform="translate(317,48)"/>
<path d="M0 0 C1.04973814 4.19895255 0.72795155 6.79405774 0 11 C-0.99 11 -1.98 11 -3 11 C-3 11.99 -3 12.98 -3 14 C-3.99 14.495 -3.99 14.495 -5 15 C-5.33 15.99 -5.66 16.98 -6 18 C-6.66 17.67 -7.32 17.34 -8 17 C-5.36 11.39 -2.72 5.78 0 0 Z " fill="#FBD547" transform="translate(121,77)"/>
<path d="M0 0 C2.97 0.495 2.97 0.495 6 1 C6.3125 3.25 6.3125 3.25 6 6 C3.5 8.3125 3.5 8.3125 1 10 C0.83266843 8.5209084 0.66615314 7.04172444 0.5 5.5625 C0.4071875 4.73878906 0.314375 3.91507812 0.21875 3.06640625 C0 1 0 1 0 0 Z " fill="#FAC81A" transform="translate(208,106)"/>
<path d="M0 0 C1.66842534 0.32441604 3.33480481 0.65939189 5 1 C5.7425 1.144375 6.485 1.28875 7.25 1.4375 C8.11625 1.7159375 8.11625 1.7159375 9 2 C9.33 2.66 9.66 3.32 10 4 C12.3140622 4.73075648 14.64828869 5.40138258 17 6 C16.67 7.32 16.34 8.64 16 10 C15.18015625 9.51789063 14.3603125 9.03578125 13.515625 8.5390625 C12.43796875 7.90742188 11.3603125 7.27578125 10.25 6.625 C9.18265625 5.99851563 8.1153125 5.37203125 7.015625 4.7265625 C4.70261322 3.40227337 2.40048583 2.15363154 0 1 C0 0.67 0 0.34 0 0 Z " fill="#F8D645" transform="translate(332,183)"/>
<path d="M0 0 C2.96430761 3.55716913 4.7721925 7.45050932 6.6875 11.625 C7.00783203 12.305625 7.32816406 12.98625 7.65820312 13.6875 C10 18.74058835 10 18.74058835 10 21 C9.34 21 8.68 21 8 21 C6.74335022 18.09399739 6 16.20395416 6 13 C5.34 13 4.68 13 4 13 C3.67 11.35 3.34 9.7 3 8 C2.34 8 1.68 8 1 8 C1 7.01 1 6.02 1 5 C0.34 5 -0.32 5 -1 5 C-0.67 3.35 -0.34 1.7 0 0 Z " fill="#FAD442" transform="translate(515,77)"/>
<path d="M0 0 C0.33 0 0.66 0 1 0 C2.22899346 6.06815522 3.27560214 11.79895188 3 18 C-1.75 17.25 -1.75 17.25 -4 15 C-2.68 15 -1.36 15 0 15 C0 15.66 0 16.32 0 17 C0.66 17 1.32 17 2 17 C2 16.01 2 15.02 2 14 C1.34 14 0.68 14 0 14 C0 9.38 0 4.76 0 0 Z " fill="#FCDB5B" transform="translate(729,184)"/>
<path d="M0 0 C1.205464 3.61639199 0.3844923 4.80981018 -1.1640625 8.1484375 C-2.31599871 10.69992238 -3.15469381 13.33403433 -4 16 C-4.66 16 -5.32 16 -6 16 C-6 16.66 -6 17.32 -6 18 C-6.66 18 -7.32 18 -8 18 C-6.65150163 13.64029169 -4.95092154 9.68658562 -2.875 5.625 C-2.33617187 4.56539062 -1.79734375 3.50578125 -1.2421875 2.4140625 C-0.83226562 1.61742187 -0.42234375 0.82078125 0 0 Z " fill="#F6D952" transform="translate(497,51)"/>
<path d="M0 0 C0.33 0 0.66 0 1 0 C1 4.29 1 8.58 1 13 C2.32 13.66 3.64 14.32 5 15 C2 17 2 17 -2 17 C-2.33 15.02 -2.66 13.04 -3 11 C-2.34 11 -1.68 11 -1 11 C-0.67 7.37 -0.34 3.74 0 0 Z " fill="#FAE064" transform="translate(633,185)"/>
<path d="M0 0 C2.64 0 5.28 0 8 0 C8 0.99 8 1.98 8 3 C8.763125 2.938125 9.52625 2.87625 10.3125 2.8125 C13 3 13 3 14.8125 4.375 C16 6 16 6 16 8 C10.31497465 6.35433477 5.23318364 3.70967216 0 1 C0 0.67 0 0.34 0 0 Z " fill="#FBD645" transform="translate(524,189)"/>
<path d="M0 0 C-9.405 4.95 -9.405 4.95 -19 10 C-19.66 9.34 -20.32 8.68 -21 8 C-19.44148245 7.17988688 -17.87798284 6.36923787 -16.3125 5.5625 C-15.44238281 5.11003906 -14.57226562 4.65757812 -13.67578125 4.19140625 C-11.09001736 3.04008072 -8.78643472 2.43679247 -6 2 C-6 1.34 -6 0.68 -6 0 C-2.25 -1.125 -2.25 -1.125 0 0 Z " fill="#FBD948" transform="translate(303,185)"/>
<path d="M0 0 C0.66 0.33 1.32 0.66 2 1 C1.731875 1.495 1.46375 1.99 1.1875 2.5 C0.16813 4.6460421 -0.56509641 6.69104261 -1.3125 8.9375 C-2.78939057 13.01036833 -4.74535146 15.18516883 -8 18 C-6.65150163 13.64029169 -4.95092154 9.68658562 -2.875 5.625 C-2.33617187 4.56539062 -1.79734375 3.50578125 -1.2421875 2.4140625 C-0.83226562 1.61742187 -0.42234375 0.82078125 0 0 Z " fill="#EAEAEA" transform="translate(859,53)"/>
<path d="M0 0 C1.43861294 0.08746284 2.87597508 0.19565348 4.3125 0.3125 C5.11300781 0.37050781 5.91351563 0.42851562 6.73828125 0.48828125 C9.40079309 1.0906803 10.23027928 1.98334151 12 4 C14.09989652 5.17574711 14.09989652 5.17574711 16 6 C13.04893565 7.25348607 12.02593537 7.01044806 8.984375 5.78515625 C7.91703125 5.21667969 6.8496875 4.64820313 5.75 4.0625 C4.67234375 3.49660156 3.5946875 2.93070313 2.484375 2.34765625 C1.66453125 1.90292969 0.8446875 1.45820313 0 1 C0 0.67 0 0.34 0 0 Z " fill="#FCD439" transform="translate(350,193)"/>
<path d="M0 0 C0.33 0.66 0.66 1.32 1 2 C1.61875 2.12375 2.2375 2.2475 2.875 2.375 C5.72682293 3.21377145 6.51602551 4.47724337 8 7 C8 7.99 8 8.98 8 10 C4.78956118 8.61811547 2.95063635 7.07578097 0.75 4.375 C0.22921875 3.74335938 -0.2915625 3.11171875 -0.828125 2.4609375 C-1.21484375 1.97882813 -1.6015625 1.49671875 -2 1 C-1.34 0.67 -0.68 0.34 0 0 Z " fill="#FAD73F" transform="translate(83,131)"/>
<path d="M0 0 C0.66 0.99 1.32 1.98 2 3 C1.67 3.99 1.34 4.98 1 6 C0.34 6 -0.32 6 -1 6 C-1.144375 6.78375 -1.28875 7.5675 -1.4375 8.375 C-2 11 -2 11 -3 13 C-3.66 13 -4.32 13 -5 13 C-5 13.99 -5 14.98 -5 16 C-5.66 16 -6.32 16 -7 16 C-5.56835889 12.34061828 -4.01065704 8.76011932 -2.375 5.1875 C-1.92898438 4.21167969 -1.48296875 3.23585938 -1.0234375 2.23046875 C-0.51683594 1.12638672 -0.51683594 1.12638672 0 0 Z " fill="#FAD53E" transform="translate(300,82)"/>
<path d="M0 0 C0.33 0 0.66 0 1 0 C1 3 1 6 1 9 C0.01 9 -0.98 9 -2 9 C-2 9.99 -2 10.98 -2 12 C-2.99 12 -3.98 12 -5 12 C-3.68938409 7.76570244 -2.05643741 3.92592596 0 0 Z " fill="#FBD132" transform="translate(310,62)"/>
<path d="M0 0 C2.4375 0.75 2.4375 0.75 5 2 C5.8125 4.125 5.8125 4.125 6 6 C4.68 5.67 3.36 5.34 2 5 C0.35 7.64 -1.3 10.28 -3 13 C-3.33 12.34 -3.66 11.68 -4 11 C-3.22265625 8.90625 -3.22265625 8.90625 -2.0625 6.5 C-0.47148572 3.37987863 -0.47148572 3.37987863 0 0 Z " fill="#FCDD5B" transform="translate(679,47)"/>
<path d="M0 0 C6.69007182 0.52405563 13.3487487 1.10463925 20 2 C20 2.33 20 2.66 20 3 C17.60408962 3.02712351 15.20849043 3.0468982 12.8125 3.0625 C12.13896484 3.07087891 11.46542969 3.07925781 10.77148438 3.08789062 C7.04565869 3.10606538 3.6211958 2.89299392 0 2 C0 1.34 0 0.68 0 0 Z " fill="#FAD74E" transform="translate(525,98)"/>
<path d="M0 0 C0.33 0.66 0.66 1.32 1 2 C-3.41029783 4.20949832 -7.48940324 4.2370648 -12.3125 4.125 C-13.05306641 4.11597656 -13.79363281 4.10695313 -14.55664062 4.09765625 C-16.37123467 4.07424213 -18.18566071 4.03837615 -20 4 C-20 3.67 -20 3.34 -20 3 C-13.4 2.01 -6.8 1.02 0 0 Z " fill="#F9D860" transform="translate(656,97)"/>
<path d="M0 0 C-6.435 2.97 -6.435 2.97 -13 6 C-12.67 4.35 -12.34 2.7 -12 1 C-4.5 -1.125 -4.5 -1.125 0 0 Z " fill="#F9D744" transform="translate(317,178)"/>
<path d="M0 0 C6.02901269 1.02934363 8.26973154 4.42209913 11.6796875 9.1015625 C12.33324219 10.04128906 12.33324219 10.04128906 13 11 C12.67 11.66 12.34 12.32 12 13 C9.99698146 11.0238076 7.99750133 9.04425526 6 7.0625 C5.42765625 6.49853516 4.8553125 5.93457031 4.265625 5.35351562 C2.82474495 3.92121224 1.41012857 2.46258871 0 1 C0 0.67 0 0.34 0 0 Z " fill="#F7D845" transform="translate(625,131)"/>
<path d="M0 0 C1.875 0.25 1.875 0.25 4 1 C4.66666667 2.33333333 5.33333333 3.66666667 6 5 C8.05000871 5.80528889 8.05000871 5.80528889 10 6 C10.33 7.65 10.66 9.3 11 11 C9.8274869 10.04882866 8.66212985 9.08882991 7.5 8.125 C6.8503125 7.59132813 6.200625 7.05765625 5.53125 6.5078125 C5.0259375 6.01023437 4.520625 5.51265625 4 5 C4 4.34 4 3.68 4 3 C2.68 2.34 1.36 1.68 0 1 C0 0.67 0 0.34 0 0 Z " fill="#FDDC57" transform="translate(243,113)"/>
<path d="M0 0 C1.77049689 -0.05410687 3.54146849 -0.09284119 5.3125 -0.125 C6.29863281 -0.14820312 7.28476562 -0.17140625 8.30078125 -0.1953125 C11 0 11 0 14 2 C13.195625 2.12375 12.39125 2.2475 11.5625 2.375 C10.2940625 2.684375 10.2940625 2.684375 9 3 C8.67 3.66 8.34 4.32 8 5 C6.68 5 5.36 5 4 5 C4 4.34 4 3.68 4 3 C4.66 3 5.32 3 6 3 C6 2.34 6 1.68 6 1 C4.02 1 2.04 1 0 1 C0 0.67 0 0.34 0 0 Z " fill="#FBC613" transform="translate(380,105)"/>
<path d="M0 0 C2.15377564 2.62198774 3.40072174 4.64404172 4 8 C3.01 8 2.02 8 1 8 C1 7.34 1 6.68 1 6 C0.38125 6.185625 -0.2375 6.37125 -0.875 6.5625 C-3 7 -3 7 -5 6 C-5 5.34 -5 4.68 -5 4 C-3.35 3.67 -1.7 3.34 0 3 C0 2.01 0 1.02 0 0 Z " fill="#FCCF33" transform="translate(695,74)"/>
<path d="M0 0 C-6.625 2 -6.625 2 -10 2 C-9.67 3.32 -9.34 4.64 -9 6 C-9.99 5.67 -10.98 5.34 -12 5 C-12.33 4.01 -12.66 3.02 -13 2 C-12.67 1.34 -12.34 0.68 -12 0 C-3.89667897 -1.46125461 -3.89667897 -1.46125461 0 0 Z " fill="#FAE276" transform="translate(613,105)"/>
<path d="M0 0 C6.36559573 0.49126929 12.69264693 0.99655747 19 2 C19 2.33 19 2.66 19 3 C16.58265458 3.08117951 14.16805051 3.14056926 11.75 3.1875 C11.06808594 3.21263672 10.38617187 3.23777344 9.68359375 3.26367188 C6.40800711 3.31137459 4.34651444 3.21085076 1.515625 1.48828125 C1.01546875 0.99714844 0.5153125 0.50601563 0 0 Z " fill="#FAD64D" transform="translate(707,98)"/>
<path d="M0 0 C3.125 -0.1875 3.125 -0.1875 6 0 C4.41727399 3.16545202 1.60316869 3.71120622 -1.5625 5.125 C-2.76003906 5.66382813 -3.95757813 6.20265625 -5.19140625 6.7578125 C-6.11824219 7.16773438 -7.04507813 7.57765625 -8 8 C-7.67 7.01 -7.34 6.02 -7 5 C-5.33927151 4.31867549 -3.672233 3.65257873 -2 3 C-1.34 2.01 -0.68 1.02 0 0 Z " fill="#F8D848" transform="translate(658,185)"/>
<path d="M0 0 C0.33 0.99 0.66 1.98 1 3 C1.99 3.33 2.98 3.66 4 4 C-0.75 7.875 -0.75 7.875 -3 9 C-3.36923077 3.46153846 -3.36923077 3.46153846 -1.5 1.125 C-1.005 0.75375 -0.51 0.3825 0 0 Z " fill="#FACB1D" transform="translate(676,59)"/>
<path d="M0 0 C2.64 0.33 5.28 0.66 8 1 C8 1.66 8 2.32 8 3 C8.99 3.33 9.98 3.66 11 4 C11 4.66 11 5.32 11 6 C7.2089881 4.55049545 3.6125362 2.84827434 0 1 C0 0.67 0 0.34 0 0 Z " fill="#F9DA48" transform="translate(714,193)"/>
<path d="M0 0 C0.99 0 1.98 0 3 0 C3.33 5.28 3.66 10.56 4 16 C3.34 15.67 2.68 15.34 2 15 C1.62109375 13.14453125 1.62109375 13.14453125 1.4375 10.8125 C1.11159048 7.16929713 0.64673491 3.60323738 0 0 Z " fill="#F9D54B" transform="translate(721,144)"/>
<path d="M0 0 C0.8125 1.6875 0.8125 1.6875 1 4 C-1.3125 6.75 -1.3125 6.75 -4 9 C-4.66 9 -5.32 9 -6 9 C-6.33 9.66 -6.66 10.32 -7 11 C-6.37240135 8.07120629 -5.41377341 5.63904371 -4 3 C-2.68 3 -1.36 3 0 3 C0 2.01 0 1.02 0 0 Z " fill="#F9D741" transform="translate(759,107)"/>
<path d="M0 0 C2.475 0.495 2.475 0.495 5 1 C4.34 4.63 3.68 8.26 3 12 C2.67 12 2.34 12 2 12 C1.93941406 11.30132812 1.87882813 10.60265625 1.81640625 9.8828125 C1.73261719 8.97273437 1.64882813 8.06265625 1.5625 7.125 C1.48128906 6.22007812 1.40007813 5.31515625 1.31640625 4.3828125 C1.13010715 1.98889139 1.13010715 1.98889139 0 0 Z " fill="#FBD02B" transform="translate(638,144)"/>
<path d="M0 0 C0.66 0.33 1.32 0.66 2 1 C0.68139111 5.61513112 -1.21355437 9.09897612 -4 13 C-5 10 -5 10 -4.00390625 7.51953125 C-3.52824219 6.62621094 -3.05257812 5.73289062 -2.5625 4.8125 C-2.08941406 3.91144531 -1.61632812 3.01039062 -1.12890625 2.08203125 C-0.75636719 1.39496094 -0.38382813 0.70789063 0 0 Z " fill="#EAEAEA" transform="translate(848,75)"/>
<path d="M0 0 C1.32 0.33 2.64 0.66 4 1 C3.67 1.99 3.34 2.98 3 4 C2.34 3.67 1.68 3.34 1 3 C0.67 4.32 0.34 5.64 0 7 C-0.66 7 -1.32 7 -2 7 C-2 8.32 -2 9.64 -2 11 C-2.66 11 -3.32 11 -4 11 C-3.52269162 9.5410574 -3.04308958 8.08286504 -2.5625 6.625 C-2.29566406 5.81289063 -2.02882812 5.00078125 -1.75390625 4.1640625 C-1 2 -1 2 0 0 Z " fill="#FBD950" transform="translate(135,48)"/>
<path d="M0 0 C2.49415272 0.99766109 3.78740335 1.68616685 5.3125 3.9375 C6 6 6 6 5 9 C3.68 7.35 2.36 5.7 1 4 C0.01 4.33 -0.98 4.66 -2 5 C-1.34 3.35 -0.68 1.7 0 0 Z " fill="#ECECEC" transform="translate(862,48)"/>
<path d="M0 0 C0.4125 0.474375 0.825 0.94875 1.25 1.4375 C3.182185 3.16266518 4.48192275 3.56584875 7 4 C3.375 7 3.375 7 0 7 C0 4.69 0 2.38 0 0 Z " fill="#E6E6E6" transform="translate(813,195)"/>
<path d="M0 0 C2.64 0 5.28 0 8 0 C8 1.32 8 2.64 8 4 C7.34 4.66 6.68 5.32 6 6 C6 4.68 6 3.36 6 2 C4.02 2 2.04 2 0 2 C0 1.34 0 0.68 0 0 Z " fill="#FADA70" transform="translate(572,105)"/>
<path d="M0 0 C2.31 0 4.62 0 7 0 C8.0625 1.875 8.0625 1.875 9 4 C8.67 4.66 8.34 5.32 8 6 C7.01 6 6.02 6 5 6 C5 5.01 5 4.02 5 3 C2.525 2.01 2.525 2.01 0 1 C0 0.67 0 0.34 0 0 Z " fill="#FBDB6C" transform="translate(391,105)"/>
<path d="M0 0 C0.33 0 0.66 0 1 0 C1 1.65 1 3.3 1 5 C1.66 5.33 2.32 5.66 3 6 C2.01 6.33 1.02 6.66 0 7 C-0.33 7.99 -0.66 8.98 -1 10 C-1.99 10.33 -2.98 10.66 -4 11 C-2.95902388 7.13351728 -1.96301592 3.50538557 0 0 Z " fill="#FAD642" transform="translate(482,81)"/>
<path d="M0 0 C-2.97 2.64 -5.94 5.28 -9 8 C-9 5 -9 5 -8 3 C-7.34 3 -6.68 3 -6 3 C-6 2.01 -6 1.02 -6 0 C-3 -1 -3 -1 0 0 Z " fill="#F7D644" transform="translate(747,124)"/>
<path d="M0 0 C2.67901932 2.31881505 3.66204403 4.31814468 4.6875 7.6875 C4.93886719 8.49574219 5.19023437 9.30398437 5.44921875 10.13671875 C5.63097656 10.75160156 5.81273437 11.36648437 6 12 C5.34 12 4.68 12 4 12 C3.32332002 10.75539217 2.65905281 9.50403104 2 8.25 C1.62875 7.55390625 1.2575 6.8578125 0.875 6.140625 C0 4 0 4 0 0 Z " fill="#F8D646" transform="translate(335,81)"/>
<path d="M0 0 C2.4375 0.6875 2.4375 0.6875 5 2 C5.8125 4.625 5.8125 4.625 6 7 C5.34 7 4.68 7 4 7 C4 6.34 4 5.68 4 5 C1.03 4.505 1.03 4.505 -2 4 C-1.34 2.68 -0.68 1.36 0 0 Z " fill="#FACB2C" transform="translate(681,51)"/>
<path d="M0 0 C0.99 0.495 0.99 0.495 2 1 C2 1.66 2 2.32 2 3 C3.32 3.33 4.64 3.66 6 4 C6 5.32 6 6.64 6 8 C5.34 8 4.68 8 4 8 C4 7.34 4 6.68 4 6 C3.34 6 2.68 6 2 6 C2 5.34 2 4.68 2 4 C1.34 4 0.68 4 0 4 C0 2.68 0 1.36 0 0 Z " fill="#F9CF31" transform="translate(446,131)"/>
<path d="M0 0 C-0.99 0.495 -0.99 0.495 -2 1 C-2.33 1.99 -2.66 2.98 -3 4 C-3 3.34 -3 2.68 -3 2 C-3.99 2.66 -4.98 3.32 -6 4 C-6.99 4 -7.98 4 -9 4 C-9 3.01 -9 2.02 -9 1 C-5.8035914 -0.06546953 -3.34252724 -0.07427838 0 0 Z " fill="#FAC70F" transform="translate(612,106)"/>
<path d="M0 0 C2.475 0.495 2.475 0.495 5 1 C4.6875 2.9375 4.6875 2.9375 4 5 C3.01 5.33 2.02 5.66 1 6 C0.67 4.02 0.34 2.04 0 0 Z " fill="#EAEAEA" transform="translate(939,105)"/>
<path d="M0 0 C2.15377564 2.62198774 3.40072174 4.64404172 4 8 C2.02 8.33 0.04 8.66 -2 9 C-1.34 6.03 -0.68 3.06 0 0 Z " fill="#F8D339" transform="translate(701,86)"/>
<path d="M0 0 C1.98 0 3.96 0 6 0 C6 0.66 6 1.32 6 2 C6.99 2.33 7.98 2.66 9 3 C9 3.66 9 4.32 9 5 C5.9168649 3.80100302 2.93720508 2.52299523 0 1 C0 0.67 0 0.34 0 0 Z " fill="#FAD94C" transform="translate(158,187)"/>
<path d="M0 0 C2.97 0.33 5.94 0.66 9 1 C9.33 2.32 9.66 3.64 10 5 C5 3 5 3 0 1 C0 0.67 0 0.34 0 0 Z " fill="#FAD750" transform="translate(507,180)"/>
<path d="M0 0 C1.65 0 3.3 0 5 0 C2.35039045 3.63094642 -0.01824456 5.89851796 -4 8 C-3.67 6.68 -3.34 5.36 -3 4 C-2.01 4 -1.02 4 0 4 C0 2.68 0 1.36 0 0 Z " fill="#F9D74D" transform="translate(379,123)"/>
<path d="M0 0 C0.66 0 1.32 0 2 0 C3 3 3 3 2.0625 5.1875 C1.5365625 6.0846875 1.5365625 6.0846875 1 7 C0.01 7 -0.98 7 -2 7 C-2.33 6.01 -2.66 5.02 -3 4 C-2.34 4 -1.68 4 -1 4 C-0.67 2.68 -0.34 1.36 0 0 Z " fill="#FCC206" transform="translate(390,108)"/>
<path d="M0 0 C2.05078125 0.03255208 4.1015625 0.06510417 6.15234375 0.09765625 C5.82234375 0.75765625 5.49234375 1.41765625 5.15234375 2.09765625 C3.48733932 2.43919562 1.82055698 2.77215123 0.15234375 3.09765625 C-0.50765625 3.75765625 -1.16765625 4.41765625 -1.84765625 5.09765625 C-2.41015625 3.16015625 -2.41015625 3.16015625 -2.84765625 1.09765625 C-1.84765625 0.09765625 -1.84765625 0.09765625 0 0 Z " fill="#FADA5A" transform="translate(58.84765625,104.90234375)"/>
<path d="M0 0 C2.64465038 3.1254959 3.84414715 6.08788267 5 10 C2 9 2 9 0.8125 7.25 C-0.10819096 4.70039426 -0.14948718 2.69076919 0 0 Z " fill="#FADA5B" transform="translate(507,61)"/>
<path d="M0 0 C1.32 0.33 2.64 0.66 4 1 C0.535 3.97 0.535 3.97 -3 7 C-3.33 6.01 -3.66 5.02 -4 4 C-3.01 4 -2.02 4 -1 4 C-0.67 2.68 -0.34 1.36 0 0 Z " fill="#FCDC5C" transform="translate(392,111)"/>
<path d="M0 0 C1.32 0.33 2.64 0.66 4 1 C3.01 1.495 3.01 1.495 2 2 C1.77390663 4.12364481 1.77390663 4.12364481 3.5 5.625 C3.995 6.07875 4.49 6.5325 5 7 C4.01 7.495 4.01 7.495 3 8 C3 7.34 3 6.68 3 6 C0.525 5.01 0.525 5.01 -2 4 C-1.34 2.68 -0.68 1.36 0 0 Z " fill="#FEEB86" transform="translate(420,105)"/>
<path d="M0 0 C3 3.75 3 3.75 3 6 C4.32 6.66 5.64 7.32 7 8 C1.125 7.125 1.125 7.125 0 6 C-0.04080783 4.00041636 -0.04254356 1.99954746 0 0 Z " fill="#F7D024" transform="translate(341,93)"/>
<path d="M0 0 C0.33 0.99 0.66 1.98 1 3 C-0.8125 6.1875 -0.8125 6.1875 -3 9 C-3.66 9 -4.32 9 -5 9 C-3.90931332 5.22454612 -3.0916909 2.52956528 0 0 Z " fill="#FACF36" transform="translate(662,88)"/>
<path d="M0 0 C0.99 0 1.98 0 3 0 C3 0.66 3 1.32 3 2 C3.66 2.33 4.32 2.66 5 3 C1.30458414 3.95024979 -1.30458414 3.95024979 -5 3 C-5 2.67 -5 2.34 -5 2 C-3.35 2 -1.7 2 0 2 C0 1.34 0 0.68 0 0 Z " fill="#FBC511" transform="translate(706,184)"/>
<path d="M0 0 C1.65 0 3.3 0 5 0 C1.8745041 2.64465038 -1.08788267 3.84414715 -5 5 C-4.67 4.01 -4.34 3.02 -4 2 C-2.68 2 -1.36 2 0 2 C0 1.34 0 0.68 0 0 Z " fill="#F9D447" transform="translate(480,184)"/>
<path d="M0 0 C1.32 0 2.64 0 4 0 C4 0.66 4 1.32 4 2 C3.01 2 2.02 2 1 2 C1.33 3.65 1.66 5.3 2 7 C0.68 5.68 -0.64 4.36 -2 3 C-1.34 2.01 -0.68 1.02 0 0 Z " fill="#FDE376" transform="translate(239,105)"/>
<path d="M0 0 C1.32 0 2.64 0 4 0 C4.66 2.31 5.32 4.62 6 7 C5.01 6.67 4.02 6.34 3 6 C2.67 5.01 2.34 4.02 2 3 C1.34 3 0.68 3 0 3 C0 2.01 0 1.02 0 0 Z " fill="#FCD85E" transform="translate(498,48)"/>
<path d="M0 0 C1.65 0 3.3 0 5 0 C5.33 1.32 5.66 2.64 6 4 C3.03 3.505 3.03 3.505 0 3 C0 2.01 0 1.02 0 0 Z " fill="#FBCF2E" transform="translate(180,197)"/>
<path d="M0 0 C2.31 0 4.62 0 7 0 C4.37801226 2.15377564 2.35595828 3.40072174 -1 4 C-0.67 2.68 -0.34 1.36 0 0 Z " fill="#FAD644" transform="translate(669,179)"/>
<path d="M0 0 C2.9375 0.75 2.9375 0.75 6 2 C6.875 4.125 6.875 4.125 7 6 C5.68 5.34 4.36 4.68 3 4 C3 3.34 3 2.68 3 2 C2.01 1.67 1.02 1.34 0 1 C0 0.67 0 0.34 0 0 Z " fill="#FCDB5C" transform="translate(254,124)"/>
<path d="M0 0 C2.95409701 1.37154504 5.44008376 2.98863724 8 5 C7.67 5.99 7.34 6.98 7 8 C5.83035398 6.8572081 4.66435444 5.71068285 3.5 4.5625 C2.8503125 3.92441406 2.200625 3.28632812 1.53125 2.62890625 C0 1 0 1 0 0 Z " fill="#F8DE4E" transform="translate(73,124)"/>
<path d="M0 0 C3.24208567 0.35049575 4.61527704 0.56221181 6.8125 3.0625 C7.204375 3.701875 7.59625 4.34125 8 5 C7.67 5.66 7.34 6.32 7 7 C5.2925002 5.71937515 3.62626404 4.38232443 2 3 C2 2.34 2 1.68 2 1 C1.34 0.67 0.68 0.34 0 0 Z " fill="#FBD751" transform="translate(613,120)"/>
<path d="M0 0 C0.66 0 1.32 0 2 0 C2.33 0.99 2.66 1.98 3 3 C3.99 3.33 4.98 3.66 6 4 C6 4.66 6 5.32 6 6 C4.35 5.67 2.7 5.34 1 5 C0.67 3.35 0.34 1.7 0 0 Z " fill="#FBCE22" transform="translate(240,107)"/>
<path d="M0 0 C0.33 0 0.66 0 1 0 C1.22786458 2.01822917 1.45572917 4.03645833 1.68359375 6.0546875 C1.91292961 8.07404316 1.91292961 8.07404316 3 10 C1.68 10 0.36 10 -1 10 C-0.67 6.7 -0.34 3.4 0 0 Z " fill="#FBE367" transform="translate(87,192)"/>
<path d="M0 0 C1.98 0.66 3.96 1.32 6 2 C6 2.66 6 3.32 6 4 C3.03 3.505 3.03 3.505 0 3 C0 2.01 0 1.02 0 0 Z " fill="#F8D02D" transform="translate(710,189)"/>
<path d="M0 0 C2.46278801 2.46278801 2.99771255 4.70676982 4 8 C3.01 8 2.02 8 1 8 C-0.35439668 5.29120665 -0.06501451 2.99066732 0 0 Z " fill="#F9D742" transform="translate(139,51)"/>
<path d="M0 0 C0.33 0.99 0.66 1.98 1 3 C1.99 3 2.98 3 4 3 C4.33 4.32 4.66 5.64 5 7 C4.34 7 3.68 7 3 7 C3 6.34 3 5.68 3 5 C1.68 4.67 0.36 4.34 -1 4 C-0.67 2.68 -0.34 1.36 0 0 Z " fill="#FBCD2F" transform="translate(318,49)"/>
<path d="" fill="#FFFFD4" transform="translate(0,0)"/>
<path d="" fill="#FFFFFF" transform="translate(0,0)"/>
</svg>
